<?xml version="1.0" encoding="UTF-8"?>
<svg width="51px" height="44px" viewBox="0 0 51 44" version="1.1" xmlns="http://www.w3.org/2000/svg" xmlns:xlink="http://www.w3.org/1999/xlink">
    <!-- Generator: Sketch 46.2 (44496) - http://www.bohemiancoding.com/sketch -->
    <title>bank</title>
    <desc>Created with Sketch.</desc>
    <defs></defs>
    <g id="Page-1" stroke="none" stroke-width="1" fill="none" fill-rule="evenodd">
        <g id="03-tai-sao-chon-USIS" transform="translate(-1134.000000, -275.000000)" fill="#1D3768">
            <g id="vi-sao-chon-usis" transform="translate(0.000000, 90.000000)">
                <g id="#4" transform="translate(1028.000000, 169.000000)">
                    <g id="bank" transform="translate(106.000000, 16.000000)">
                        <path d="M25.1428571,1.62689076 L42.4470588,7.9372549 L7.83865546,7.9372549 L25.1428571,1.62689076 Z M3.35238095,9.56414566 L46.9333333,9.56414566 C47.3277311,9.56414566 47.6235294,9.26834734 47.7221289,8.9232493 C47.7714286,8.52885154 47.5742297,8.1837535 47.2291317,8.03585434 L25.3893557,0.0492997199 C25.1921569,-2.49158333e-14 25.0442577,-2.49158333e-14 24.8470588,0.0492997199 L3.10588235,8.03585434 C2.76078431,8.1837535 2.51428571,8.52885154 2.61288515,8.9232493 C2.66218487,9.26834734 2.95798319,9.56414566 3.35238095,9.56414566 L3.35238095,9.56414566 Z" id="Fill-1"></path>
                        <path d="M1.57759104,42.2991597 L48.7081232,42.2991597 L48.7081232,40.6229692 L1.57759104,40.6229692 L1.57759104,42.2991597 Z M4.58487395,39.0453782 L45.7008403,39.0453782 L45.7008403,37.3691877 L4.58487395,37.3691877 L4.58487395,39.0453782 Z M6.65546218,35.7915966 L11.5854342,35.7915966 L11.5854342,34.1647059 L6.65546218,34.1647059 L6.65546218,35.7915966 Z M7.98655462,32.5871148 L10.3036415,32.5871148 L10.3036415,13.4588235 L7.98655462,13.4588235 L7.98655462,32.5871148 Z M24.0089636,32.5871148 L26.3260504,32.5871148 L26.3260504,13.4588235 L24.0089636,13.4588235 L24.0089636,32.5871148 Z M39.9820728,32.5871148 L42.2991597,32.5871148 L42.2991597,13.4588235 L39.9820728,13.4588235 L39.9820728,32.5871148 Z M38.7002801,35.7915966 L43.6302521,35.7915966 L43.6302521,34.1647059 L38.7002801,34.1647059 L38.7002801,35.7915966 Z M22.6778711,35.7915966 L27.6078431,35.7915966 L27.6078431,34.1647059 L22.6778711,34.1647059 L22.6778711,35.7915966 Z M13.1630252,35.7915966 L13.1630252,33.3759104 C13.1630252,32.9322129 12.8179272,32.5871148 12.3742297,32.5871148 L11.8812325,32.5871148 L11.8812325,13.4588235 L22.3820728,13.4588235 L22.3820728,32.5871148 L21.8890756,32.5871148 C21.4453782,32.5871148 21.1002801,32.9322129 21.1002801,33.3759104 L21.1002801,35.7915966 L13.1630252,35.7915966 Z M29.1854342,35.7915966 L29.1854342,33.3759104 C29.1854342,32.9322129 28.8403361,32.5871148 28.3966387,32.5871148 L27.9036415,32.5871148 L27.9036415,13.4588235 L38.4044818,13.4588235 L38.4044818,32.5871148 L37.9114846,32.5871148 C37.4677871,32.5871148 37.1226891,32.9322129 37.1226891,33.3759104 L37.1226891,35.7915966 L29.1854342,35.7915966 Z M49.4969188,39.0453782 L47.2784314,39.0453782 L47.2784314,36.5803922 C47.2784314,36.1366947 46.9333333,35.7915966 46.4896359,35.7915966 L45.2078431,35.7915966 L45.2078431,33.3759104 C45.2078431,32.9322129 44.8627451,32.5871148 44.4190476,32.5871148 L43.9260504,32.5871148 L43.9260504,13.4588235 L45.8980392,13.4588235 C46.3417367,13.4588235 46.6868347,13.1137255 46.6868347,12.670028 C46.6868347,12.2263305 46.3417367,11.8812325 45.8980392,11.8812325 L4.38767507,11.8812325 C3.94397759,11.8812325 3.59887955,12.2263305 3.59887955,12.670028 C3.59887955,13.1137255 3.94397759,13.4588235 4.38767507,13.4588235 L6.35966387,13.4588235 L6.35966387,32.5871148 L5.86666667,32.5871148 C5.42296919,32.5871148 5.07787115,32.9322129 5.07787115,33.3759104 L5.07787115,35.7915966 L3.79607843,35.7915966 C3.35238095,35.7915966 3.00728291,36.1366947 3.00728291,36.5803922 L3.00728291,39.0453782 L0.788795518,39.0453782 C0.345098039,39.0453782 0,39.3904762 0,39.8341737 L0,43.0879552 C0,43.5316527 0.345098039,43.8767507 0.788795518,43.8767507 L49.4969188,43.8767507 C49.9406162,43.8767507 50.2857143,43.5316527 50.2857143,43.0879552 L50.2857143,39.8341737 C50.2857143,39.3904762 49.9406162,39.0453782 49.4969188,39.0453782 L49.4969188,39.0453782 Z" id="Fill-3"></path>
                    </g>
                </g>
            </g>
        </g>
    </g>
</svg>