<?xml version="1.0" encoding="utf-8"?>
<!-- Generator: Adobe Illustrator 21.0.2, SVG Export Plug-In . SVG Version: 6.00 Build 0)  -->
<svg version="1.1" id="Layer_1" xmlns="http://www.w3.org/2000/svg" xmlns:xlink="http://www.w3.org/1999/xlink" x="0px" y="0px"
	 viewBox="0 0 25 44" style="enable-background:new 0 0 25 44;" xml:space="preserve">
<style type="text/css">
	.st0{filter:url(#Adobe_OpacityMaskFilter);}
	.st1{fill:#FFFFFF;}
	.st2{mask:url(#mask-2);fill:#1D3768;}
	.st3{fill:#1D3768;}
</style>
<title>empire-state-building</title>
<desc>Created with Sketch.</desc>
<g id="Page-1">
	<g id="_x30_3-tai-sao-chon-USIS-APPROVED" transform="translate(-854.000000, -274.000000)">
		<g id="vi-sao-chon-usis" transform="translate(0.000000, 90.000000)">
			<g id="_x23_3" transform="translate(735.000000, 169.000000)">
				<g id="empire-state-building" transform="translate(119.000000, 15.000000)">
					<g id="Group-3" transform="translate(0.000000, 18.390625)">
						<g id="Clip-2">
						</g>
						<defs>
							<filter id="Adobe_OpacityMaskFilter" filterUnits="userSpaceOnUse" x="0" y="0" width="8.1" height="25.6">
								<feColorMatrix  type="matrix" values="1 0 0 0 0  0 1 0 0 0  0 0 1 0 0  0 0 0 1 0"/>
							</filter>
						</defs>
						<mask maskUnits="userSpaceOnUse" x="0" y="0" width="8.1" height="25.6" id="mask-2">
							<g class="st0">
								<polygon id="path-1" class="st1" points="4.1,25.6 0,25.6 0,0 8.1,0 8.1,25.6 								"/>
							</g>
						</mask>
						<path id="Fill-1" class="st2" d="M5.3,4.8h1.4V1.5H5.3V4.8z M2.4,16.3h4.3v-10H2.4V16.3z M3.8,4.8H1v11.5H0v9.3h1.4v-7.9h1.4
							v7.9h1.4v-7.9h2.4v7.9h1.4V0H3.8V4.8L3.8,4.8z"/>
					</g>
					<path id="Fill-4" class="st3" d="M17.7,34.7H22v-10h-4.3V34.7z M17.7,23.2h1.4v-3.3h-1.4V23.2z M23.4,34.7V23.2h-2.9v-4.8h-4.3
						V44h1.4v-7.9h2.4V44h1.4v-7.9H23V44h1.4v-9.3H23.4L23.4,34.7z"/>
					<path id="Fill-5" class="st3" d="M10,13.6h4.3v-1.4H10V13.6z M11.5,10.8h1.4V6.5h-1.4V10.8z M16.3,18.2h1.4v-4.5h-1.9v-2.9
						h-1.4V5h-1.4V0h-1.4v5H10v5.7H8.6v2.9H6.7v4.5h1.4v-3.1h8.1V18.2L16.3,18.2z"/>
					<polygon id="Fill-6" class="st3" points="3.8,27.3 5.3,27.3 5.3,25.8 3.8,25.8 					"/>
					<polygon id="Fill-7" class="st3" points="3.8,33 5.3,33 5.3,31.6 3.8,31.6 					"/>
					<polygon id="Fill-8" class="st3" points="3.8,30.1 5.3,30.1 5.3,28.7 3.8,28.7 					"/>
					<polygon id="Fill-9" class="st3" points="19.1,30.1 20.6,30.1 20.6,28.7 19.1,28.7 					"/>
					<polygon id="Fill-10" class="st3" points="19.1,27.3 20.6,27.3 20.6,25.8 19.1,25.8 					"/>
					<polygon id="Fill-11" class="st3" points="19.1,33 20.6,33 20.6,31.6 19.1,31.6 					"/>
					<polygon id="Fill-12" class="st3" points="9.6,44 11,44 11,17.2 9.6,17.2 					"/>
					<polygon id="Fill-13" class="st3" points="13.4,44 14.8,44 14.8,17.2 13.4,17.2 					"/>
				</g>
			</g>
		</g>
	</g>
</g>
</svg>
