<?xml version="1.0" encoding="utf-8"?>
<!-- Generator: Adobe Illustrator 21.0.2, SVG Export Plug-In . SVG Version: 6.00 Build 0)  -->
<svg version="1.1" id="Layer_1" xmlns="http://www.w3.org/2000/svg" xmlns:xlink="http://www.w3.org/1999/xlink" x="0px" y="0px"
	 viewBox="0 0 15 14" style="enable-background:new 0 0 15 14;" xml:space="preserve">
<style type="text/css">
	.st0{fill:#1E2E42;}
</style>
<title>Fill 4</title>
<desc>Created with Sketch.</desc>
<g id="Symbols">
	<g id="footer" transform="translate(-1266.000000, -369.000000)">
		<g id="G_x2B_" transform="translate(0.000000, -9.000000)">
			<g transform="translate(1258.000000, 369.000000)">
				<path id="Fill-4" class="st0" d="M12.5,22.3c-1.7,0-2.9-1.1-2.9-2.3c0-1.2,1.5-2.3,3.2-2.3c0.4,0,0.8,0.1,1.1,0.2
					c0.9,0.6,1.6,1,1.8,1.7c0,0.1,0.1,0.3,0.1,0.4C15.7,21.3,14.9,22.3,12.5,22.3L12.5,22.3z M13,14.9c-1.1,0-2.2-1.2-2.4-2.7
					c-0.2-1.5,0.6-2.6,1.7-2.6c1.1,0,2.2,1.2,2.4,2.7C14.9,13.8,14.1,14.9,13,14.9L13,14.9z M15.3,17.1L15.3,17.1
					c-0.4-0.3-1.2-1-1.2-1.4c0-0.5,0.1-0.7,0.8-1.2c0.7-0.6,1.2-1.3,1.2-2.3c0-1.1-0.5-2.2-1.4-2.5h1.4l0.6-0.2c0,0-2.9-0.5-4-0.5
					c-2,0-3.8,1.5-3.8,3.2c0,1.7,1.4,3.1,3.4,3.1c0.1,0,0.3,0,0.4,0c-0.1,0.2-0.2,0.5-0.2,0.8c0,0.5,0.3,0.9,0.6,1.2
					c-0.3,0-0.5,0-0.8,0c-2.5,0-4.3,1.5-4.3,3.1C8,22,10.1,23,12.5,23c2.8,0,4.3-1.6,4.3-3.1C16.9,18.6,16.5,17.9,15.3,17.1
					L15.3,17.1z M23,11.8h-2.3l0-2.3H20v2.3h-2.3v0.7H20v2.1l0.7,0l0-2.1H23V11.8z"/>
			</g>
		</g>
	</g>
</g>
</svg>
