<?xml version="1.0" encoding="UTF-8"?>
<svg width="69px" height="44px" viewBox="0 0 69 44" version="1.1" xmlns="http://www.w3.org/2000/svg" xmlns:xlink="http://www.w3.org/1999/xlink">
    <!-- Generator: Sketch 46.2 (44496) - http://www.bohemiancoding.com/sketch -->
    <title>group</title>
    <desc>Created with Sketch.</desc>
    <defs>
        <polygon id="path-1" points="0.00802431611 43.8662614 68.4740304 43.8662614 68.4740304 0.0493495441 0.00802431611 0.0493495441"></polygon>
        <linearGradient x1="50%" y1="0%" x2="50%" y2="100%" id="linearGradient-3">
            <stop stop-color="#2767A7" offset="0%"></stop>
            <stop stop-color="#1D3768" offset="100%"></stop>
        </linearGradient>
    </defs>
    <g id="Page-1" stroke="none" stroke-width="1" fill="none" fill-rule="evenodd">
        <g id="03-tai-sao-chon-USIS" transform="translate(-1125.000000, -492.000000)">
            <g id="vi-sao-chon-usis" transform="translate(0.000000, 90.000000)">
                <g id="#4-copy" transform="translate(1028.000000, 370.000000)">
                    <g id="group" transform="translate(97.000000, 32.000000)">
                        <mask id="mask-2" fill="white">
                            <use xlink:href="#path-1"></use>
                        </mask>
                        <g id="Clip-2"></g>
                        <path d="M34.2372158,21.3527052 C35.4011429,21.3527052 36.5109058,21.1173252 37.5222371,20.692304 L37.5222371,21.1003404 C37.5222371,21.6778237 37.6823222,22.2296292 37.9659818,22.7068085 L34.2370821,26.4355745 L30.5083161,22.7066748 C30.7918419,22.2296292 30.9519271,21.67769 30.9519271,21.1003404 L30.9519271,20.6921702 C31.9633921,21.1171915 33.0732888,21.3527052 34.2372158,21.3527052 Z M27.7357812,12.8451915 L27.7357812,12.3940912 C28.3616778,12.1460061 28.9725957,11.7512097 29.5574347,11.2115745 C29.9644012,10.8359027 29.9899453,10.2013131 29.6141398,9.79421277 C29.2384681,9.3872462 28.6040122,9.36170213 28.1967781,9.73737386 C27.6951246,10.2005106 27.1938723,10.4996839 26.7073313,10.6267356 C26.6955623,10.6298116 26.6868693,10.6311489 26.6807173,10.6316839 C26.6734954,10.6176413 26.6637325,10.5882188 26.6637325,10.5410091 L26.6637325,8.55699696 C26.6637325,4.97213374 29.580304,2.05556231 33.1651672,2.05556231 L35.3092644,2.05556231 C38.8942614,2.05556231 41.8106991,4.97213374 41.8106991,8.55699696 L41.8106991,8.77565957 C41.8106991,8.80815805 41.7911733,8.8363769 41.7654954,8.84145897 C35.7591611,10.0277204 32.7465653,7.79201216 31.730152,6.77559878 C31.3384316,6.38387842 30.703307,6.38387842 30.3117204,6.77559878 C29.92,7.16731915 29.92,7.80244377 30.3117204,8.1940304 C33.4264924,11.3088024 37.9715988,11.3649726 40.7386505,11.0324985 L40.7386505,12.8450578 C40.7386505,16.429921 37.822079,19.3464924 34.2372158,19.3464924 C30.6523526,19.3466261 27.7357812,16.4300547 27.7357812,12.8451915 Z M46.0346991,24.733617 L40.2061033,22.1431003 C39.7943222,21.9601459 39.5284498,21.550772 39.5284498,21.1003404 L39.5284498,19.4997568 C41.486383,17.939696 42.7448632,15.5373495 42.7448632,12.8451915 L42.7448632,10.5920973 C43.3898845,10.2356839 43.8169119,9.54693009 43.8169119,8.77552584 L43.8169119,8.55686322 C43.8169119,3.86584802 40.0004134,0.0493495441 35.3093982,0.0493495441 L33.1653009,0.0493495441 C28.4742857,0.0493495441 24.6577872,3.86584802 24.6577872,8.55686322 L24.6577872,10.5408754 C24.6577872,11.2189301 24.9496049,11.8331915 25.4582128,12.2262492 C25.5444742,12.2928511 25.6352827,12.3514286 25.7298359,12.4021155 L25.7298359,12.8450578 C25.7298359,15.5372158 26.9881824,17.9395623 28.9459818,19.4994894 L28.9459818,21.1002067 C28.9459818,21.5506383 28.6799757,21.9600122 28.2683283,22.1429666 L22.4397325,24.7334833 C20.5308815,25.5817872 19.2974103,27.4798055 19.2974103,29.5686687 L19.2974103,42.8628207 C19.2974103,43.416766 19.7465046,43.8658602 20.3004498,43.8658602 C20.8543951,43.8658602 21.3034894,43.416766 21.3034894,42.8628207 L21.3034894,29.5688024 C21.3034894,29.4525836 21.3117812,29.3377021 21.3238176,29.2237568 L24.0095562,31.9094954 C24.4274894,32.3275623 24.6577872,32.8832462 24.6577872,33.4745046 L24.6577872,42.8629544 C24.6577872,43.4168997 25.1068815,43.8659939 25.6608267,43.8659939 C26.214772,43.8659939 26.6638663,43.4168997 26.6638663,42.8629544 L26.6638663,33.4745046 C26.6638663,32.3474894 26.2250699,31.2880122 25.4281216,30.4910638 L22.2262857,27.2890942 C22.5147599,26.9897872 22.8608754,26.7417021 23.2546018,26.5666383 L28.9848997,24.0198541 L33.2344438,28.2693982 L33.2344438,42.8628207 C33.2344438,43.416766 33.683538,43.8658602 34.2374833,43.8658602 C34.7914286,43.8658602 35.2405228,43.416766 35.2405228,42.8628207 L35.2405228,28.2695319 L39.4900669,24.0199878 L45.220231,26.5666383 C45.6139574,26.7417021 45.9600729,26.9897872 46.2485471,27.289228 L43.0467112,30.4910638 C42.2497629,31.2880122 41.8109666,32.3474894 41.8109666,33.4745046 L41.8109666,42.8629544 C41.8109666,43.4168997 42.2600608,43.8659939 42.8140061,43.8659939 C43.3679514,43.8659939 43.8170456,43.4168997 43.8170456,42.8629544 L43.8170456,33.4745046 C43.8170456,32.8833799 44.0472097,32.3275623 44.4652766,31.9094954 L47.1508815,29.2238906 C47.1629179,29.3378359 47.1712097,29.4524498 47.1712097,29.5686687 L47.1712097,42.8628207 C47.1712097,43.416766 47.620304,43.8658602 48.1742492,43.8658602 C48.7281945,43.8658602 49.1772888,43.416766 49.1772888,42.8628207 L49.1772888,29.5688024 C49.1768875,27.4799392 47.9435502,25.581921 46.0346991,24.733617 L46.0346991,24.733617 Z" id="Fill-1" fill="url(#linearGradient-3)" mask="url(#mask-2)"></path>
                        <path d="M10.6516109,24.7068693 C7.65787234,24.7068693 5.22222492,22.2712219 5.22222492,19.2774833 L5.22222492,19.0696535 C6.0221155,18.8858967 7.20810942,18.4588693 8.44532523,17.4638541 C8.88305167,17.8768389 9.50868085,18.3834407 10.3053617,18.8179574 C11.2476839,19.3319149 12.5490942,19.8073556 14.1387112,19.8073556 C14.7428085,19.8073556 15.3891672,19.7371429 16.0724377,19.5758541 C15.9168997,22.4314407 13.5451793,24.7068693 10.6516109,24.7068693 Z M12.9694347,28.4059453 L10.6516109,30.723769 L8.33378723,28.4059453 C8.40145897,28.1472948 8.43850456,27.8776778 8.43850456,27.6009726 L8.43850456,26.3765957 C9.13782371,26.5951246 9.8812766,26.7129483 10.6516109,26.7129483 C11.4219453,26.7129483 12.1653982,26.5951246 12.8647173,26.3765957 L12.8647173,27.6009726 C12.8647173,27.8776778 12.9017629,28.1474286 12.9694347,28.4059453 Z M10.6516109,11.7041337 C13.6453495,11.7041337 16.080997,14.1397812 16.080997,17.1335198 L16.080997,17.4970213 C11.9050091,18.7755623 9.41626748,15.5988693 9.30994529,15.4596474 C9.13541641,15.227076 8.8686079,15.0815684 8.57866261,15.0609726 C8.28871733,15.0406444 8.0038541,15.1466991 7.79829787,15.3522553 C6.84086322,16.30969 5.90308815,16.7714894 5.22583587,16.9944316 C5.30006079,14.0647538 7.70454711,11.7041337 10.6516109,11.7041337 Z M8.43850456,9.62891185 C8.43850456,8.40854711 9.4312462,7.41580547 10.6516109,7.41580547 C11.8719757,7.41580547 12.8647173,8.40868085 12.8647173,9.62891185 C12.8647173,9.76331915 12.8526809,9.89505167 12.8296778,10.0241094 C12.1403891,9.81253495 11.4092401,9.69792097 10.6516109,9.69792097 C9.89505167,9.69792097 9.16483891,9.81213374 8.47662006,10.0231733 C8.45348328,9.8941155 8.43850456,9.76305167 8.43850456,9.62891185 Z M18.087076,17.133386 C18.087076,14.5166565 16.7272219,12.2131429 14.6782128,10.8875258 C14.8047295,10.4816292 14.8707964,10.0564742 14.8707964,9.62891185 C14.8707964,7.30239514 12.9781277,5.40972644 10.6516109,5.40972644 C8.32509422,5.40972644 6.43242553,7.30252888 6.43242553,9.62891185 C6.43242553,10.0618237 6.49795745,10.4828328 6.62474164,10.8877933 C4.57586626,12.2132766 3.2161459,14.5167903 3.2161459,17.133386 L3.2161459,19.2774833 C3.2161459,21.8114286 4.49107599,24.0520851 6.43229179,25.3950881 L6.43229179,27.6008389 C6.43229179,28.0358906 6.19062614,28.4269422 5.80158055,28.6215319 L2.33226748,30.3561216 C0.893641337,31.0756353 0,32.521617 0,34.1300912 L0,42.8630881 C0,43.4170334 0.449094225,43.8661277 1.00303951,43.8661277 C1.5569848,43.8661277 2.00607903,43.4170334 2.00607903,42.8630881 L2.00607903,34.5639392 L3.64009726,36.1979574 C4.0580304,36.6160243 4.28832827,37.1717082 4.28832827,37.7629666 L4.28832827,42.8630881 C4.28832827,43.4170334 4.73742249,43.8661277 5.29136778,43.8661277 C5.84531307,43.8661277 6.29440729,43.4170334 6.29440729,42.8630881 L6.29440729,37.7629666 C6.29440729,36.6359514 5.8554772,35.5764742 5.05866261,34.7795258 L2.78443769,32.5053009 C2.77347112,32.4943343 2.76170213,32.4848389 2.75046809,32.474541 C2.89316717,32.3485593 3.05325228,32.2388936 3.22951976,32.1506261 L6.69883283,30.4160365 C6.87657143,30.3271003 7.04200608,30.2221155 7.19620669,30.1054954 L9.64857143,32.5579939 L9.64857143,42.8632219 C9.64857143,43.4171672 10.0976657,43.8662614 10.6516109,43.8662614 C11.2055562,43.8662614 11.6546505,43.4171672 11.6546505,42.8632219 L11.6546505,32.5578602 L14.1071489,30.1053617 C14.2614833,30.2221155 14.4267842,30.3271003 14.6045228,30.4159027 L15.561155,30.8942857 C15.7051915,30.9663708 15.8581884,31.0004742 16.0090456,31.0004742 C16.3769605,31.0004742 16.731234,30.7971915 16.9069666,30.4458602 C17.1547842,29.9503587 16.9539088,29.3478663 16.4584073,29.1001824 L15.5017751,28.6217994 C15.1125957,28.4272097 14.8709301,28.0361581 14.8709301,27.6012401 L14.8709301,25.3954894 C16.8121459,24.0524863 18.087076,21.811696 18.087076,19.2778845 L18.087076,17.133386 L18.087076,17.133386 Z" id="Fill-3" fill="url(#linearGradient-3)" mask="url(#mask-2)"></path>
                        <path d="M55.6784559,24.5688511 C56.4564134,24.5688511 57.2020061,24.4278906 57.8915623,24.1712462 L57.8915623,24.3848267 C57.8915623,24.6615319 57.9284742,24.9311489 57.9962796,25.1897994 L55.6784559,27.5076231 L53.3606322,25.1897994 C53.428304,24.9311489 53.4653495,24.6615319 53.4653495,24.3848267 L53.4653495,24.1712462 C54.1549058,24.4278906 54.9004985,24.5688511 55.6784559,24.5688511 Z M51.3211185,16.588535 C52.0236474,16.3078176 52.8421277,15.8615319 53.6750517,15.1519149 C54.7283769,15.6999757 56.9321216,16.6472462 60.0357933,16.9601945 L60.0357933,18.2055684 C60.0357933,20.6081824 58.0810699,22.5629058 55.6784559,22.5629058 C53.2758419,22.5629058 51.3211185,20.6083161 51.3211185,18.2055684 L51.3211185,16.588535 Z M50.2490699,13.9172401 C50.2490699,11.5146261 52.2037933,9.55990274 54.6064073,9.55990274 L56.7505046,9.55990274 C59.1531185,9.55990274 61.1078419,11.5146261 61.1078419,13.9172401 L61.1078419,15.0314164 C56.7475623,14.7961702 54.1162553,13.0994286 54.0907112,13.0827112 C53.920997,12.9695684 53.7273435,12.9142006 53.5346261,12.9142006 C53.2757082,12.9142006 53.0189301,13.0142371 52.8250091,13.2080243 C51.8653009,14.1677325 50.9249848,14.6296657 50.2489362,14.8520729 L50.2489362,13.9172401 L50.2490699,13.9172401 Z M66.1418967,28.2121581 L60.5284863,25.405386 C60.1394407,25.2107964 59.8977751,24.8197447 59.8977751,24.3848267 L59.8977751,22.9633191 C61.2117568,21.7967173 62.0418723,20.0966322 62.0418723,18.2055684 L62.0418723,17.0638419 C62.0650091,17.0638419 62.0877447,17.0645106 62.1108815,17.0645106 C62.6648267,17.0645106 63.113921,16.6154164 63.113921,16.0614711 L63.113921,13.9173739 C63.113921,10.4086079 60.2592705,7.55395745 56.7505046,7.55395745 L54.6064073,7.55395745 C51.0976413,7.55395745 48.2429909,10.4086079 48.2429909,13.9173739 L48.2429909,16.0614711 C48.2429909,16.6154164 48.6920851,17.0645106 49.2460304,17.0645106 C49.2543222,17.0645106 49.2783951,17.0642432 49.3150395,17.062772 L49.3150395,18.2055684 C49.3150395,20.096766 50.1452888,21.7968511 51.4592705,22.9634529 L51.4592705,24.3849605 C51.4592705,24.8200122 51.2176049,25.2110638 50.8284255,25.4055198 C50.332924,25.6532036 50.1320486,26.255696 50.3798663,26.7511976 C50.5555988,27.1026626 50.9098723,27.3059453 51.2777872,27.3059453 C51.4285106,27.3059453 51.5815076,27.2718419 51.7255441,27.1998906 C51.9032827,27.1109544 52.0687173,27.0059696 52.2229179,26.8893495 L54.6754164,29.341848 L54.6754164,42.8632219 C54.6754164,43.4171672 55.1245106,43.8662614 55.6784559,43.8662614 C56.2324012,43.8662614 56.6814954,43.4171672 56.6814954,42.8632219 L56.6814954,29.3415805 L59.1338602,26.8890821 C59.2881945,27.0058359 59.4534954,27.1108207 59.631234,27.1996231 L65.0630274,29.9155866 L63.4155015,31.5631125 C62.6186869,32.3600608 62.1797568,33.419538 62.1797568,34.5465532 L62.1797568,42.8629544 C62.1797568,43.4168997 62.6288511,43.8659939 63.1827964,43.8659939 C63.7367416,43.8659939 64.1858359,43.4168997 64.1858359,42.8629544 L64.1858359,34.5465532 C64.1858359,33.9554286 64.416,33.3996109 64.8340669,32.9815441 L66.3946626,31.4209483 C66.4420061,31.6024316 66.4679514,31.7916717 66.4679514,31.9858602 L66.4679514,42.8629544 C66.4679514,43.4168997 66.9170456,43.8659939 67.4709909,43.8659939 C68.0249362,43.8659939 68.4740304,43.4168997 68.4740304,42.8629544 L68.4740304,31.9858602 C68.4741641,30.3775198 67.5805228,28.931538 66.1418967,28.2121581 L66.1418967,28.2121581 Z" id="Fill-4" fill="url(#linearGradient-3)" mask="url(#mask-2)"></path>
                    </g>
                </g>
            </g>
        </g>
    </g>
</svg>