<?xml version="1.0" encoding="utf-8"?>
<!-- Generator: Adobe Illustrator 21.0.2, SVG Export Plug-In . SVG Version: 6.00 Build 0)  -->
<svg version="1.1" id="Layer_1" xmlns="http://www.w3.org/2000/svg" xmlns:xlink="http://www.w3.org/1999/xlink" x="0px" y="0px"
	 viewBox="0 0 60 44" style="enable-background:new 0 0 60 44;" xml:space="preserve">
<style type="text/css">
	.st0{filter:url(#Adobe_OpacityMaskFilter);}
	.st1{fill:#FFFFFF;}
	.st2{mask:url(#mask-2);fill:url(#Fill-1_1_);}
	.st3{fill:url(#Fill-4_1_);}
	.st4{fill:url(#Fill-5_1_);}
</style>
<title>handshake</title>
<desc>Created with Sketch.</desc>
<g id="Page-1">
	<g id="_x30_3-tai-sao-chon-USIS-APPROVED" transform="translate(-836.000000, -491.000000)">
		<g id="vi-sao-chon-usis" transform="translate(0.000000, 90.000000)">
			<g id="_x23_3-copy" transform="translate(735.000000, 387.000000)">
				<g id="handshake" transform="translate(101.000000, 14.000000)">
					<g id="Group-3">
						<g id="Clip-2">
						</g>
						<defs>
							<filter id="Adobe_OpacityMaskFilter" filterUnits="userSpaceOnUse" x="0" y="0.1" width="59.3" height="43.9">
								<feColorMatrix  type="matrix" values="1 0 0 0 0  0 1 0 0 0  0 0 1 0 0  0 0 0 1 0"/>
							</filter>
						</defs>
						<mask maskUnits="userSpaceOnUse" x="0" y="0.1" width="59.3" height="43.9" id="mask-2">
							<g class="st0">
								<polygon id="path-1" class="st1" points="59.3,22 59.3,44 0,44 0,0.1 59.3,0.1 								"/>
							</g>
						</mask>
						
							<linearGradient id="Fill-1_1_" gradientUnits="userSpaceOnUse" x1="-269.8614" y1="410.5126" x2="-269.8614" y2="409.5126" gradientTransform="matrix(59.2845 0 0 -43.9478 16028.2451 18041.1602)">
							<stop  offset="0" style="stop-color:#2767A7"/>
							<stop  offset="1" style="stop-color:#1D3768"/>
						</linearGradient>
						<path id="Fill-1" class="st2" d="M52.6,17.3L42.4,7.1l4.4-4.4L57,12.9L52.6,17.3z M47.3,20.3c-0.7,0.7-1.1,1.5-1.2,2.4
							c-0.5,2.6-1.7,5-3.6,6.9l-0.7,0.7l-6-6c0.1,0,0.3,0,0.4,0c0.6,0,1.2-0.1,1.8-0.4c0.5-0.2,0.7-0.8,0.5-1.2
							c-0.2-0.5-0.8-0.7-1.2-0.5c-2.4,1-5.4-1.8-5.7-2.1c0,0,0,0,0,0l0,0c0,0,0,0,0,0l0,0c0,0,0,0,0,0l-0.8-0.8l0.9-0.9
							c0.4-0.4,0.4-1,0-1.3c-0.4-0.4-1-0.4-1.3,0l-1.6,1.6c0,0,0,0,0,0c0,0,0,0,0,0L25,22.2c-0.7,0.7-2,0.7-2.7,0
							c-0.4-0.4-0.6-0.8-0.6-1.3c0-0.5,0.2-1,0.6-1.3l6.2-6.2c0.3-0.3,0.7-0.7,1.1-0.9c1-0.6,2.1-0.9,3.3-0.9c0.9,0,1.8,0.2,2.6,0.6
							c1.8,0.8,4,0.4,5.4-1l1.3-1.3l7.7,7.7L47.3,20.3z M41.3,34.4c-0.2,0.2-0.6,0.4-0.9,0.4c-0.3,0-0.7-0.1-0.9-0.4l-9.2-9.2
							c-0.4-0.4-1-0.4-1.3,0c-0.4,0.4-0.4,1,0,1.3l9.9,9.9c0.2,0.2,0.4,0.6,0.4,0.9c0,0.3-0.1,0.7-0.4,0.9c-0.5,0.5-1.3,0.5-1.8,0
							l-1.7-1.7c0,0,0,0,0,0c0,0,0,0,0,0l-7.7-7.7c-0.4-0.4-1-0.4-1.3,0c-0.4,0.4-0.4,1,0,1.3l7.7,7.7c0.2,0.2,0.4,0.6,0.4,0.9
							c0,0.3-0.1,0.7-0.4,0.9c-0.5,0.5-1.3,0.5-1.8,0l-8.3-8.3c-0.4-0.4-1-0.4-1.3,0c-0.4,0.4-0.4,1,0,1.3l6.2,6.2c0,0,0,0,0,0
							c0.2,0.2,0.4,0.6,0.4,0.9c0,0.3-0.1,0.7-0.4,0.9c-0.2,0.2-0.6,0.4-0.9,0.4c-0.1,0-0.2,0-0.2,0c0.2-1-0.2-2.1-1-2.9
							c-0.6-0.6-1.5-1-2.4-1c0,0-0.1,0-0.1,0c0-0.9-0.3-1.8-1-2.5c-0.6-0.6-1.5-1-2.4-1c-0.1,0-0.1,0-0.2,0c0-0.9-0.3-1.9-1-2.6
							c-0.9-0.9-2.1-1.2-3.2-0.9l-0.7-0.7c-1.9-1.9-3.1-4.2-3.6-6.8c-0.2-1-0.6-1.8-1.3-2.5L9,18.5L18.5,9l2.4,2.4
							c0.9,0.9,2.1,1.4,3.4,1.4c0.6,0,1.1-0.1,1.7-0.3c0.3-0.1,0.5-0.2,0.8-0.2L21,18.2c-0.7,0.7-1.1,1.7-1.1,2.7c0,1,0.4,2,1.1,2.7
							c0.7,0.7,1.7,1.1,2.7,1.1c1,0,1.9-0.4,2.7-1.1l2.9-2.9l0.8,0.8c0,0,0,0,0,0l0,0l0,0c0,0,0,0,0,0l0,0c0,0,0,0,0,0l11.1,11.1
							c0.2,0.2,0.4,0.6,0.4,0.9C41.7,33.8,41.5,34.2,41.3,34.4z M25.2,41.7c-0.3,0.3-0.7,0.4-1.1,0.4c-0.4,0-0.8-0.2-1.1-0.4
							c-0.6-0.6-0.6-1.6,0-2.1c0.3-0.3,0.7-0.4,1.1-0.4c0.4,0,0.8,0.1,1.1,0.4C25.8,40.1,25.8,41.1,25.2,41.7z M20.7,38.6
							c-0.4,0-0.8-0.2-1.1-0.4c-0.6-0.6-0.6-1.6,0-2.1c0.3-0.3,0.7-0.4,1.1-0.4c0.4,0,0.8,0.1,1.1,0.4c0.6,0.6,0.6,1.6,0,2.1
							C21.4,38.5,21.1,38.6,20.7,38.6z M16,34.6c-0.3-0.3-0.4-0.7-0.4-1.1c0-0.4,0.2-0.8,0.4-1.1c0.3-0.3,0.7-0.4,1.1-0.4
							c0.4,0,0.8,0.1,1.1,0.4c0.6,0.6,0.6,1.6,0,2.1C17.6,35.2,16.6,35.2,16,34.6z M2.3,13.8L13.7,2.3l4.4,4.4L6.7,18.2L2.3,13.8z
							 M59,12.2L47.5,0.7c-0.4-0.4-1-0.4-1.3,0l-5.7,5.7c-0.2,0.2-0.3,0.4-0.3,0.7c0,0.3,0.1,0.5,0.3,0.7L41,8.4l-1.3,1.3
							c-0.9,0.9-2.2,1.1-3.3,0.6c-1.1-0.5-2.2-0.7-3.4-0.7c-1.4,0-2.7,0.3-3.9,1c-0.5-0.1-1-0.2-1.5-0.2c-0.7,0-1.5,0.1-2.2,0.4
							c-1.1,0.4-2.3,0.2-3.1-0.7l-2.4-2.4l0.3-0.3c0.2-0.2,0.3-0.4,0.3-0.7c0-0.3-0.1-0.5-0.3-0.7l-5.7-5.7c-0.4-0.4-1-0.4-1.3,0
							L0.3,13.1c-0.4,0.4-0.4,1,0,1.3L6,20.2c0.2,0.2,0.4,0.3,0.7,0.3c0.3,0,0.5-0.1,0.7-0.3l0.3-0.3l1.7,1.7
							c0.4,0.4,0.7,0.9,0.8,1.5c0.6,3,2,5.7,4.1,7.8l0.3,0.3c-0.6,0.6-0.9,1.5-0.9,2.3c0,0.9,0.4,1.8,1,2.4c0.7,0.7,1.5,1,2.4,1
							c0.1,0,0.1,0,0.2,0c0,0.9,0.3,1.9,1,2.6c0.6,0.6,1.5,1,2.4,1c0,0,0.1,0,0.1,0c0,0.9,0.3,1.8,1,2.5c0.6,0.6,1.5,1,2.4,1
							c0.9,0,1.8-0.4,2.4-1c0.1-0.1,0.1-0.1,0.2-0.2c0.3,0.1,0.7,0.2,1,0.2c0.9,0,1.7-0.3,2.3-0.9c0.3-0.3,0.6-0.7,0.7-1.1l0.1,0.1
							c0.6,0.6,1.4,0.9,2.3,0.9s1.6-0.3,2.3-0.9c0.3-0.3,0.6-0.7,0.7-1.1c0.6,0.4,1.2,0.6,1.9,0.6c0.8,0,1.6-0.3,2.3-0.9
							c0.6-0.6,0.9-1.4,0.9-2.3c0-0.3,0-0.5-0.1-0.8c0.6-0.1,1.2-0.4,1.6-0.9c0.6-0.6,0.9-1.4,0.9-2.3c0-0.7-0.2-1.3-0.6-1.8
							l0.8-0.8c2.2-2.2,3.6-4.9,4.1-7.9c0.1-0.5,0.3-1,0.7-1.4l2.8-2.8l0.5,0.5c0.2,0.2,0.4,0.3,0.7,0.3s0.5-0.1,0.7-0.3l5.7-5.7
							c0.2-0.2,0.3-0.4,0.3-0.7C59.3,12.6,59.2,12.4,59,12.2L59,12.2z"/>
					</g>
					
						<linearGradient id="Fill-4_1_" gradientUnits="userSpaceOnUse" x1="-129.2843" y1="222.0228" x2="-129.2843" y2="221.0228" gradientTransform="matrix(1.8937 0 0 -1.8936 298.3723 433.0662)">
						<stop  offset="0" style="stop-color:#2767A7"/>
						<stop  offset="1" style="stop-color:#1D3768"/>
					</linearGradient>
					<path id="Fill-4" class="st3" d="M53.5,12.6c0.5,0,0.9,0.4,0.9,0.9s-0.4,0.9-0.9,0.9c-0.5,0-0.9-0.4-0.9-0.9S53,12.6,53.5,12.6
						"/>
					
						<linearGradient id="Fill-5_1_" gradientUnits="userSpaceOnUse" x1="-129.2845" y1="222.0229" x2="-129.2845" y2="221.0229" gradientTransform="matrix(1.8937 0 0 -1.8936 251.0332 434.0021)">
						<stop  offset="0" style="stop-color:#2767A7"/>
						<stop  offset="1" style="stop-color:#1D3768"/>
					</linearGradient>
					<path id="Fill-5" class="st4" d="M6.2,13.6c0.5,0,0.9,0.4,0.9,0.9s-0.4,0.9-0.9,0.9c-0.5,0-0.9-0.4-0.9-0.9S5.7,13.6,6.2,13.6"
						/>
				</g>
			</g>
		</g>
	</g>
</g>
</svg>
