<?xml version="1.0" encoding="UTF-8"?>
<svg width="56px" height="44px" viewBox="0 0 56 44" version="1.1" xmlns="http://www.w3.org/2000/svg" xmlns:xlink="http://www.w3.org/1999/xlink">
    <!-- Generator: Sketch 46.2 (44496) - http://www.bohemiancoding.com/sketch -->
    <title>insurance</title>
    <desc>Created with Sketch.</desc>
    <defs>
        <polygon id="path-1" points="27.7926964 0.020625 0.00651315789 0.020625 0.00651315789 43.3125 27.7926964 43.3125 55.5788797 43.3125 55.5788797 0.020625"></polygon>
        <linearGradient x1="50%" y1="0%" x2="50%" y2="100%" id="linearGradient-3">
            <stop stop-color="#2767A7" offset="0%"></stop>
            <stop stop-color="#1D3768" offset="100%"></stop>
        </linearGradient>
    </defs>
    <g id="Page-1" stroke="none" stroke-width="1" fill="none" fill-rule="evenodd">
        <g id="03-tai-sao-chon-USIS-APPROVED" transform="translate(-551.000000, -492.000000)">
            <g id="vi-sao-chon-usis" transform="translate(5.000000, 90.000000)">
                <g id="#6" transform="translate(443.000000, 387.000000)">
                    <g id="insurance" transform="translate(103.000000, 15.000000)">
                        <mask id="mask-2" fill="white">
                            <use xlink:href="#path-1"></use>
                        </mask>
                        <g id="Clip-2"></g>
                        <path d="M42.2923224,37.6439901 L34.3753618,40.9463783 C32.7812664,41.6122401 30.999375,41.6809539 29.3574079,41.139602 L10.7880691,35.0211414 C9.61863158,34.6351283 8.35366776,34.6952664 7.22689145,35.1900493 L6.48992763,35.5126678 C6.03183553,35.7133816 5.82287171,36.247352 6.02347697,36.7055526 C6.22408224,37.1637533 6.75826974,37.3725 7.21636184,37.1718947 L7.95408553,36.8489507 C8.67150987,36.5340395 9.47631908,36.4957204 10.2205559,36.7412664 L28.7903289,42.8599441 C29.7067303,43.1619375 30.657977,43.3125 31.6077039,43.3125 C32.7884309,43.3125 33.9670954,43.0800888 35.0730296,42.6180888 L42.9894474,39.3158092 C43.4511217,39.1232368 43.6693125,38.5929572 43.4767401,38.1312829 C43.2842763,37.6696086 42.7537796,37.4515263 42.2923224,37.6439901" id="Fill-1" fill="url(#linearGradient-3)" mask="url(#mask-2)"></path>
                        <path d="M45.9938586,24.452023 C46.4707303,24.1539375 47.0709178,24.0921711 47.6027171,24.303523 C47.6111842,24.3069967 47.6203026,24.3104704 47.6299638,24.3139441 C48.0692763,24.4950099 48.4123026,24.8355395 48.5968421,25.2739836 C48.7834441,25.7174211 48.7855066,26.2073191 48.6030296,26.6519507 L48.1383158,27.7804638 L45.9939671,28.5307796 L45.9939671,24.452023 L45.9938586,24.452023 Z M20.5357697,25.7256711 C20.6712434,25.2135197 21.0289243,24.7989572 21.5174112,24.5883651 C21.7897697,24.4708026 22.0841645,24.4284671 22.3737829,24.4585362 L22.3737829,28.0467434 L21.6315,27.7874112 C20.7892401,27.492148 20.3078092,26.5867105 20.5357697,25.7256711 Z M35.6960132,21.0747336 L30.3792138,19.0353553 L30.3792138,15.5990132 L37.9872336,15.5990132 L37.9872336,23.6818421 C37.9379507,23.4780888 37.8722763,23.277375 37.7883651,23.0826316 C37.3857434,22.1489704 36.6420493,21.4355625 35.6960132,21.0747336 Z M39.1103191,1.83204276 L42.7332632,1.83204276 L42.7332632,6.76630263 L39.1103191,4.36739803 L39.1103191,1.83204276 Z M55.2382007,29.5446612 L55.2256086,29.515352 C54.4105954,27.6252336 52.3578651,26.6037533 50.3896974,27.0284112 C50.6390428,26.2207796 50.598227,25.3599572 50.2664901,24.5714309 C49.8924178,23.6821678 49.1939901,22.9929671 48.2977796,22.6299671 C48.2881184,22.6260592 48.2776974,22.6220428 48.266625,22.6179178 C47.5302039,22.3273224 46.7317993,22.2951908 45.9939671,22.4964474 L45.9939671,16.6253783 C45.9939671,16.1251678 45.5884145,15.7196151 45.0882039,15.7196151 C44.5879934,15.7196151 44.1825493,16.1251678 44.1825493,16.6253783 L44.1825493,29.1644013 L36.2199967,31.9505132 C35.3566776,32.2518553 34.4070592,32.2518553 33.5456941,31.9506217 L24.1854178,28.6796053 L24.1854178,25.0299572 L33.1488257,28.0950493 C34.9581809,28.7154276 36.9721579,27.8413618 37.7597072,26.1052796 L38.8931053,26.1052796 C39.3933158,26.1052796 39.7988684,25.699727 39.7988684,25.1995164 L39.7988684,14.6931414 C39.7988684,14.1929309 39.3933158,13.7874868 38.8931053,13.7874868 L29.4736678,13.7874868 C28.9734572,13.7874868 28.5679046,14.1929309 28.5679046,14.6931414 L28.5679046,18.3402928 L24.1854178,16.6592467 L24.1854178,9.89891447 L34.1833322,3.27828947 L44.1825493,9.89902303 L44.1825493,13.6065296 C44.1825493,14.1067401 44.5879934,14.5122928 45.0882039,14.5122928 C45.5884145,14.5122928 45.9939671,14.1067401 45.9939671,13.6065296 L45.9939671,11.0977697 L48.4802566,12.7440789 C48.6340757,12.8460099 48.8075428,12.89475 48.9794901,12.89475 C49.2730164,12.89475 49.5611151,12.7521118 49.7354507,12.4889803 C50.0116086,12.0719211 49.8974112,11.5099441 49.4802434,11.2337862 L44.5447895,7.96570066 L44.5447895,0.926388158 C44.5447895,0.426177632 44.1392368,0.020625 43.6390263,0.020625 L38.204773,0.020625 C37.7045625,0.020625 37.2990099,0.426177632 37.2990099,0.926388158 L37.2990099,3.16789145 L34.683977,1.43636842 C34.3807895,1.23565461 33.9869605,1.23565461 33.6838816,1.43636842 L18.8876151,11.2338947 C18.4704474,11.5100526 18.3563586,12.0720296 18.6324079,12.4890888 C18.9086743,12.9063651 19.4707599,13.0204539 19.887602,12.7442961 L22.374,11.0979868 L22.374,15.9646184 L19.3193289,14.7929013 C19.201875,14.7463322 19.0729145,14.6992204 18.9146447,14.6449441 C15.7014868,13.5409638 12.0383783,14.0447566 9.11614145,15.9920822 L0.403598684,21.7960658 C-0.0125921053,22.0733092 -0.125269737,22.6357204 0.152082237,23.0520197 C0.429325658,23.468102 0.991628289,23.5808882 1.40803618,23.3035362 L10.1206875,17.4994441 C12.576148,15.8631217 15.6434112,15.4362928 18.3272664,16.3583388 C18.458398,16.4032796 18.5613059,16.4407303 18.6606316,16.4801349 L35.0488224,22.7665263 C35.5355724,22.9522599 35.9177862,23.3192763 36.1250132,23.7998388 C36.3388618,24.2955987 36.338102,24.8390132 36.1224079,25.3311908 C35.7247796,26.2427072 34.6765954,26.7039474 33.7354441,26.3813289 L23.3393586,22.8262303 C22.5088224,22.5420395 21.6071842,22.5769934 20.8002039,22.9247961 C19.7977204,23.3571612 19.0631447,24.2090822 18.7847072,25.2621513 C18.3165197,27.0310164 19.3039145,28.8910658 21.0334836,29.4971151 L32.9481118,33.6607599 C34.1945132,34.0964901 35.5684638,34.0964901 36.8175789,33.6606513 L50.4777336,28.8808618 C51.6960197,28.4540329 53.0514079,29.0474901 53.5652961,30.2390724 L53.5705066,30.2512303 C53.8278849,30.8604276 53.8321184,31.5331283 53.5819046,32.1456908 C53.3313651,32.7590132 52.8565559,33.2375132 52.2447533,33.4926118 L44.9504507,36.5352336 C44.4887763,36.7279145 44.2706941,37.2580855 44.4631579,37.7198684 C44.6081842,38.0674539 44.9449145,38.2771776 45.2994474,38.2771776 C45.4155987,38.2771776 45.5338125,38.2545987 45.6476842,38.2070526 L52.9419868,35.1644309 C54.0017862,34.7222961 54.8246151,33.8934967 55.2587171,32.8306579 C55.6924934,31.7687961 55.6853289,30.6021809 55.2382007,29.5446612 L55.2382007,29.5446612 Z" id="Fill-3" fill="url(#linearGradient-3)" mask="url(#mask-2)"></path>
                    </g>
                </g>
            </g>
        </g>
    </g>
</svg>