<?xml version="1.0" encoding="utf-8"?>
<!-- Generator: Adobe Illustrator 21.0.2, SVG Export Plug-In . SVG Version: 6.00 Build 0)  -->
<svg version="1.1" id="Layer_1" xmlns="http://www.w3.org/2000/svg" xmlns:xlink="http://www.w3.org/1999/xlink" x="0px" y="0px"
	 viewBox="0 0 44 44" style="enable-background:new 0 0 44 44;" xml:space="preserve">
<style type="text/css">
	.st0{fill:url(#libra_1_);}
</style>
<title>libra</title>
<desc>Created with Sketch.</desc>
<g id="Page-1">
	<g id="_x30_3-tai-sao-chon-USIS-APPROVED" transform="translate(-259.000000, -492.000000)">
		<g id="vi-sao-chon-usis" transform="translate(0.000000, 90.000000)">
			<g id="_x23_1-copy" transform="translate(147.000000, 387.000000)">
				
					<linearGradient id="libra_1_" gradientUnits="userSpaceOnUse" x1="-164.0404" y1="425.4861" x2="-164.0404" y2="424.4861" gradientTransform="matrix(43.811 0 0 -43.8105 7320.6792 18655.9531)">
					<stop  offset="0" style="stop-color:#2767A7"/>
					<stop  offset="1" style="stop-color:#1D3768"/>
				</linearGradient>
				<path id="libra" class="st0" d="M155.8,45.5C155.8,45.4,155.8,45.4,155.8,45.5C155.8,45.4,155.8,45.4,155.8,45.5
					C155.8,45.4,155.8,45.4,155.8,45.5c0-0.1,0-0.1,0-0.1c0,0,0,0,0,0c0,0,0,0,0,0c0,0,0,0,0,0c0,0,0,0,0,0c0,0,0,0,0,0c0,0,0,0,0,0
					c0,0,0,0,0,0l-7.5-16.5v-2.2h0c0.8,0,1.5-0.7,1.5-1.5v-0.1c0-0.7-0.5-1.3-1.2-1.4l-12.4-2v-1.3c0.5-0.5,0.8-1.2,0.8-2
					c0-1.6-1.3-3-3-3c-1.6,0-3,1.3-3,3c0,0.8,0.3,1.5,0.8,2v1.2l-12.4,2.1c-0.7,0.1-1.2,0.7-1.2,1.4V25c0,0.8,0.7,1.5,1.5,1.5h0v2.2
					l-7.5,16.5c0,0,0,0,0,0c0,0,0,0,0,0c0,0,0,0,0,0c0,0,0,0,0,0c0,0,0,0,0,0c0,0,0,0,0,0c0,0,0,0,0,0c0,0,0,0,0,0c0,0,0,0,0,0
					c0,0,0,0,0,0c0,0,0,0,0,0c0,0,0,0,0,0c0,2.9,3.7,5.2,8.3,5.2c4.6,0,8.2-2.3,8.3-5.2c0,0,0,0,0,0c0,0,0,0,0,0c0,0,0,0,0,0
					c0,0,0,0,0,0c0,0,0,0,0,0c0,0,0,0,0,0c0,0,0,0,0,0c0,0,0,0,0,0c0,0,0,0,0,0c0,0,0,0,0,0c0,0,0,0,0,0c0,0,0,0,0,0L121,28.6v-2.2
					h10.7v15.4c-0.5,0.3-0.8,0.7-0.8,1.3v10.5l-4.5,1.4c-0.9,0.3-1.6,1.1-1.6,2.1v1.2c0,0.4,0.3,0.7,0.7,0.7h16.7
					c0.4,0,0.7-0.3,0.7-0.7v-1.2c0-1-0.6-1.8-1.6-2.1l-4.5-1.4V43.2c0-0.6-0.3-1-0.8-1.3V26.4h10.7v2.2l-7.5,16.5c0,0,0,0,0,0
					c0,0,0,0,0,0c0,0,0,0,0,0c0,0,0,0,0,0c0,0,0,0,0,0c0,0,0,0,0,0c0,0,0,0,0,0c0,0,0,0,0,0c0,0,0,0,0,0c0,0,0,0,0,0c0,0,0,0,0,0
					c0,0,0,0,0,0c0,2.9,3.7,5.2,8.3,5.2C152.1,50.7,155.8,48.4,155.8,45.5C155.8,45.5,155.8,45.5,155.8,45.5z M120.3,30.5l6.5,14.2
					h-12.9L120.3,30.5z M120.3,49.3c-3.3,0-6.1-1.4-6.7-3.1H127C126.4,47.9,123.6,49.3,120.3,49.3z M135.5,43.2v10.3h-3.1V43.2
					c0,0,0,0,0,0L135.5,43.2C135.4,43.1,135.5,43.1,135.5,43.2z M133.1,41.7V21c0.3,0.1,0.5,0.1,0.8,0.1c0.3,0,0.5,0,0.8-0.1v20.6
					H133.1z M133.9,16.6c0.9,0,1.6,0.7,1.6,1.6c0,0.9-0.7,1.6-1.6,1.6c-0.9,0-1.6-0.7-1.6-1.6C132.3,17.3,133,16.6,133.9,16.6z
					 M119.5,25C119.5,25,119.5,25,119.5,25l0-0.2c0,0,0,0,0,0l12.2-2V25H119.5z M141.5,57.1v0.4h-15.2v-0.4c0-0.4,0.2-0.7,0.6-0.8
					l4.9-1.5h4.3l4.9,1.5C141.3,56.5,141.5,56.8,141.5,57.1z M136.1,22.9l12.2,2c0,0,0,0,0,0V25c0,0,0,0,0,0h-12.2V22.9z
					 M147.5,30.5l6.5,14.2h-12.9L147.5,30.5z M147.5,49.3c-3.3,0-6.1-1.4-6.7-3.1h13.5C153.7,47.9,150.8,49.3,147.5,49.3z"/>
			</g>
		</g>
	</g>
</g>
</svg>
