<?xml version="1.0" encoding="utf-8"?>
<!-- Generator: Adobe Illustrator 21.0.2, SVG Export Plug-In . SVG Version: 6.00 Build 0)  -->
<svg version="1.1" id="Layer_1" xmlns="http://www.w3.org/2000/svg" xmlns:xlink="http://www.w3.org/1999/xlink" x="0px" y="0px"
	 viewBox="0 0 32 44" style="enable-background:new 0 0 32 44;" xml:space="preserve">
<style type="text/css">
	.st0{fill:url(#Fill-1_1_);}
	.st1{fill:url(#Fill-2_1_);}
	.st2{fill:url(#Fill-3_1_);}
	.st3{fill:url(#Fill-4_1_);}
</style>
<title>passport</title>
<desc>Created with Sketch.</desc>
<g id="Page-1">
	<g id="_x30_3-tai-sao-chon-USIS-APPROVED" transform="translate(-264.000000, -274.000000)">
		<g id="vi-sao-chon-usis" transform="translate(0.000000, 90.000000)">
			<g id="_x23_1" transform="translate(149.000000, 169.000000)">
				<g id="passport" transform="translate(115.000000, 15.000000)">
					
						<linearGradient id="Fill-1_1_" gradientUnits="userSpaceOnUse" x1="-255.3155" y1="162.0023" x2="-255.3155" y2="161.0023" gradientTransform="matrix(8.7089 0 0 -1.4514 2239.4817 243.878)">
						<stop  offset="0" style="stop-color:#2767A7"/>
						<stop  offset="1" style="stop-color:#1D3768"/>
					</linearGradient>
					<path id="Fill-1" class="st0" d="M12.3,10.2h7.3c0.4,0,0.7-0.3,0.7-0.7c0-0.4-0.3-0.7-0.7-0.7h-7.3c-0.4,0-0.7,0.3-0.7,0.7
						C11.6,9.9,11.9,10.2,12.3,10.2z"/>
					
						<linearGradient id="Fill-2_1_" gradientUnits="userSpaceOnUse" x1="-268.5894" y1="162.0025" x2="-268.5894" y2="161.0025" gradientTransform="matrix(14.5149 0 0 -1.4514 3914.5225 246.7812)">
						<stop  offset="0" style="stop-color:#2767A7"/>
						<stop  offset="1" style="stop-color:#1D3768"/>
					</linearGradient>
					<path id="Fill-2" class="st1" d="M9.4,13.1h13.1c0.4,0,0.7-0.3,0.7-0.7c0-0.4-0.3-0.7-0.7-0.7H9.4c-0.4,0-0.7,0.3-0.7,0.7
						C8.7,12.8,9,13.1,9.4,13.1z"/>
					
						<linearGradient id="Fill-3_1_" gradientUnits="userSpaceOnUse" x1="-274.2786" y1="400.645" x2="-274.2786" y2="399.645" gradientTransform="matrix(20.3215 0 0 -20.3214 5589.7158 8159.1191)">
						<stop  offset="0" style="stop-color:#2767A7"/>
						<stop  offset="1" style="stop-color:#1D3768"/>
					</linearGradient>
					<path id="Fill-3" class="st2" d="M16,17.5c-5.6,0-10.2,4.6-10.2,10.2S10.4,37.8,16,37.8c5.6,0,10.2-4.6,10.2-10.2
						C26.1,22,21.6,17.5,16,17.5z M18.6,24.6c-0.8,0.1-1.6,0.1-2.6,0.1c-1,0-1.8-0.1-2.6-0.1c0.6-2.9,1.9-4.6,2.6-5.4
						C16.7,19.9,18,21.7,18.6,24.6z M18.8,26c0.1,0.5,0.1,1,0.1,1.6s0,1.1-0.1,1.6C18,29.1,17,29.1,16,29.1c-1.1,0-2,0.1-2.8,0.2
						c-0.1-0.5-0.1-1-0.1-1.6c0-0.6,0-1.1,0.1-1.6c0.8,0.1,1.8,0.2,2.8,0.2C17,26.2,17.9,26.1,18.8,26z M14.2,19.1
						c-0.8,1.1-1.8,2.8-2.2,5.3C10.1,24,9,23.4,8.5,23.1C9.8,21.1,11.8,19.6,14.2,19.1z M7.3,27.6c0-1.1,0.2-2.2,0.6-3.2
						c0.7,0.5,1.9,1,3.8,1.4c-0.1,0.6-0.1,1.2-0.1,1.8c0,0.6,0,1.2,0.1,1.8c-1.9,0.4-3.1,1-3.8,1.4C7.5,29.8,7.3,28.8,7.3,27.6z
						 M8.5,32.2c0.5-0.3,1.5-0.9,3.4-1.3c0.5,2.4,1.4,4.2,2.2,5.3C11.8,35.6,9.8,34.2,8.5,32.2z M13.4,30.7c0.8-0.1,1.6-0.1,2.6-0.1
						c1,0,1.8,0.1,2.6,0.1C18,33.6,16.7,35.3,16,36C15.3,35.3,13.9,33.6,13.4,30.7z M17.8,36.1c0.8-1.1,1.8-2.8,2.2-5.3
						c1.9,0.4,2.9,0.9,3.4,1.3C22.2,34.2,20.1,35.6,17.8,36.1z M24.7,27.6c0,1.1-0.2,2.2-0.6,3.2c-0.7-0.5-1.9-1-3.8-1.4
						c0.1-0.6,0.1-1.2,0.1-1.8c0-0.6,0-1.2-0.1-1.8c1.9-0.4,3.1-0.9,3.8-1.4C24.5,25.4,24.7,26.5,24.7,27.6z M20,24.4
						c-0.5-2.4-1.4-4.2-2.2-5.3c2.4,0.5,4.4,2,5.6,4C22.9,23.4,21.9,24,20,24.4z"/>
					
						<linearGradient id="Fill-4_1_" gradientUnits="userSpaceOnUse" x1="-279.45" y1="410.4343" x2="-279.45" y2="409.4343" gradientTransform="matrix(31.9336 0 0 -43.5457 8939.7979 17872.7012)">
						<stop  offset="0" style="stop-color:#2767A7"/>
						<stop  offset="1" style="stop-color:#1D3768"/>
					</linearGradient>
					<path id="Fill-4" class="st3" d="M28.3,2.9h-0.7V2.2c0-1.2-1-2.2-2.2-2.2H2.2C1,0,0,1,0,2.2v40.6c0,0.4,0.3,0.7,0.7,0.7h27.6
						c2,0,3.6-1.6,3.6-3.6V6.6C31.9,4.6,30.3,2.9,28.3,2.9z M30.5,40c0,1.2-1,2.2-2.2,2.2H1.5V2.2c0-0.4,0.3-0.7,0.7-0.7h23.2
						c0.4,0,0.7,0.3,0.7,0.7v0.7H3.6c-0.4,0-0.7,0.3-0.7,0.7c0,0.4,0.3,0.7,0.7,0.7h24.7c1.2,0,2.2,1,2.2,2.2V40z"/>
				</g>
			</g>
		</g>
	</g>
</g>
</svg>
