<?xml version="1.0" encoding="utf-8"?>
<!-- Generator: Adobe Illustrator 21.0.2, SVG Export Plug-In . SVG Version: 6.00 Build 0)  -->
<svg version="1.1" id="Layer_1" xmlns="http://www.w3.org/2000/svg" xmlns:xlink="http://www.w3.org/1999/xlink" x="0px" y="0px"
	 viewBox="0 0 18 18" style="enable-background:new 0 0 18 18;" xml:space="preserve">
<style type="text/css">
	.st0{fill:#1C1D1E;}
</style>
<title>Shape</title>
<desc>Created with Sketch.</desc>
<g id="Page-1">
	<g id="_x30_19-lien-he" transform="translate(-352.000000, -1517.000000)">
		<g id="tin-tuc-_x23_1-copy" transform="translate(320.000000, 1244.000000)">
			<path id="Shape" class="st0" d="M35.6,280.8c1.4,2.8,3.8,5.1,6.6,6.6l2.2-2.2c0.3-0.3,0.7-0.4,1-0.2c1.1,0.4,2.3,0.6,3.6,0.6
				c0.5,0,1,0.4,1,1v3.5c0,0.5-0.5,1-1,1c-9.4,0-17-7.6-17-17c0-0.5,0.5-1,1-1h3.5c0.5,0,1,0.5,1,1c0,1.2,0.2,2.5,0.6,3.6
				c0.1,0.4,0,0.7-0.2,1L35.6,280.8z"/>
		</g>
	</g>
</g>
</svg>
