<?xml version="1.0" encoding="utf-8"?>
<!-- Generator: Adobe Illustrator 21.0.2, SVG Export Plug-In . SVG Version: 6.00 Build 0)  -->
<svg version="1.1" id="Layer_1" xmlns="http://www.w3.org/2000/svg" xmlns:xlink="http://www.w3.org/1999/xlink" x="0px" y="0px"
	 viewBox="0 0 13 22" style="enable-background:new 0 0 13 22;" xml:space="preserve">
<style type="text/css">
	.st0{fill:#1C1D1E;}
	.st1{fill:none;}
</style>
<title>ic_phone_iphone_24px</title>
<desc>Created with Sketch.</desc>
<g id="Page-1">
	<g id="_x30_19-lien-he" transform="translate(-353.000000, -1134.000000)">
		<g id="tin-tuc-_x23_1" transform="translate(320.000000, 944.000000)">
			<g id="Group-2" transform="translate(28.000000, 189.000000)">
				<g id="ic_phone_iphone_24px">
					<path id="Shape" class="st0" d="M15.5,1h-8C6.1,1,5,2.1,5,3.5v17C5,21.9,6.1,23,7.5,23h8c1.4,0,2.5-1.1,2.5-2.5v-17
						C18,2.1,16.9,1,15.5,1z M11.5,22c-0.8,0-1.5-0.7-1.5-1.5s0.7-1.5,1.5-1.5s1.5,0.7,1.5,1.5S12.3,22,11.5,22z M16,18H7V4h9V18z"
						/>
					<polygon id="Shape_1_" class="st1" points="0,0 24,0 24,24 0,24 					"/>
				</g>
			</g>
		</g>
	</g>
</g>
</svg>
