<?xml version="1.0" encoding="utf-8"?>
<!-- Generator: Adobe Illustrator 21.0.2, SVG Export Plug-In . SVG Version: 6.00 Build 0)  -->
<svg version="1.1" id="Layer_1" xmlns="http://www.w3.org/2000/svg" xmlns:xlink="http://www.w3.org/1999/xlink" x="0px" y="0px"
	 viewBox="0 0 20 20" style="enable-background:new 0 0 20 20;" xml:space="preserve">
<style type="text/css">
	.st0{fill:#757575;}
	.st1{fill:none;}
</style>
<title>ic/radio_button_checked/grey600</title>
<desc>Created with Sketch.</desc>
<g id="Page-1">
	<g id="Artboard" transform="translate(-1201.000000, -1102.000000)">
		<g id="ic_x2F_radio_x5F_button_x5F_checked_x2F_grey600" transform="translate(1199.000000, 1100.000000)">
			<g id="ic_radio_button_checked_24px">
				<path id="Shape" class="st0" d="M12,7c-2.8,0-5,2.2-5,5s2.2,5,5,5s5-2.2,5-5S14.8,7,12,7z M12,2C6.5,2,2,6.5,2,12s4.5,10,10,10
					s10-4.5,10-10S17.5,2,12,2z M12,20c-4.4,0-8-3.6-8-8s3.6-8,8-8s8,3.6,8,8S16.4,20,12,20z"/>
				<polygon id="Shape_1_" class="st1" points="0,0 24,0 24,24 0,24 				"/>
			</g>
		</g>
	</g>
</g>
</svg>
