<?xml version="1.0" encoding="utf-8"?>
<!-- Generator: Adobe Illustrator 21.0.2, SVG Export Plug-In . SVG Version: 6.00 Build 0)  -->
<svg version="1.1" id="Layer_1" xmlns="http://www.w3.org/2000/svg" xmlns:xlink="http://www.w3.org/1999/xlink" x="0px" y="0px"
	 viewBox="0 0 18 18" style="enable-background:new 0 0 18 18;" xml:space="preserve">
<style type="text/css">
	.st0{fill:#757575;}
	.st1{fill:none;}
</style>
<title>ic_search_24px</title>
<desc>Created with Sketch.</desc>
<g id="Page-1">
	<g id="_x30_1-Homepage" transform="translate(-1204.000000, -36.000000)">
		<g id="Menu">
			<g id="Group-7">
				<g>
					<g id="ic_search_24px" transform="translate(1201.000000, 33.000000)">
						<path id="Shape" class="st0" d="M15.5,14h-0.8l-0.3-0.3c1-1.1,1.6-2.6,1.6-4.2C16,5.9,13.1,3,9.5,3S3,5.9,3,9.5S5.9,16,9.5,16
							c1.6,0,3.1-0.6,4.2-1.6l0.3,0.3v0.8l5,5l1.5-1.5L15.5,14z M9.5,14C7,14,5,12,5,9.5S7,5,9.5,5S14,7,14,9.5S12,14,9.5,14z"/>
						<polygon id="Shape_1_" class="st1" points="0,0 24,0 24,24 0,24 						"/>
					</g>
				</g>
			</g>
		</g>
	</g>
</g>
</svg>
