<?xml version="1.0" encoding="utf-8"?>
<!-- Generator: Adobe Illustrator 21.0.2, SVG Export Plug-In . SVG Version: 6.00 Build 0)  -->
<svg version="1.1" id="Layer_1" xmlns="http://www.w3.org/2000/svg" xmlns:xlink="http://www.w3.org/1999/xlink" x="0px" y="0px"
	 viewBox="0 0 41 44" style="enable-background:new 0 0 41 44;" xml:space="preserve">
<style type="text/css">
	.st0{filter:url(#Adobe_OpacityMaskFilter);}
	.st1{fill:#FFFFFF;}
	.st2{mask:url(#mask-2);fill:url(#Fill-1_1_);}
	.st3{fill:url(#Fill-4_1_);}
	.st4{fill:url(#Fill-5_1_);}
	.st5{fill:url(#Fill-6_1_);}
	.st6{fill:url(#Fill-7_1_);}
	.st7{fill:url(#Fill-8_1_);}
	.st8{fill:url(#Fill-9_1_);}
	.st9{fill:url(#Fill-10_1_);}
	.st10{fill:url(#Fill-11_1_);}
	.st11{fill:url(#Fill-12_1_);}
	.st12{fill:url(#Fill-13_1_);}
	.st13{fill:url(#Fill-14_1_);}
	.st14{fill:url(#Fill-15_1_);}
	.st15{fill:url(#Fill-16_1_);}
	.st16{fill:url(#Fill-17_1_);}
	.st17{fill:url(#Fill-18_1_);}
	.st18{fill:url(#Fill-19_1_);}
	.st19{fill:url(#Fill-20_1_);}
	.st20{fill:url(#Fill-21_1_);}
	.st21{fill:url(#Fill-22_1_);}
	.st22{fill:url(#Fill-23_1_);}
	.st23{fill:url(#Fill-24_1_);}
	.st24{fill:url(#Fill-25_1_);}
	.st25{fill:url(#Fill-26_1_);}
	.st26{fill:url(#Fill-27_1_);}
	.st27{fill:url(#Fill-28_1_);}
	.st28{fill:url(#Fill-29_1_);}
	.st29{fill:url(#Fill-30_1_);}
	.st30{fill:url(#Fill-31_1_);}
	.st31{fill:url(#Fill-32_1_);}
</style>
<title>skyline</title>
<desc>Created with Sketch.</desc>
<g id="Page-1">
	<g id="_x30_3-tai-sao-chon-USIS-APPROVED" transform="translate(-557.000000, -274.000000)">
		<g id="vi-sao-chon-usis" transform="translate(0.000000, 90.000000)">
			<g id="_x23_2" transform="translate(446.000000, 169.000000)">
				<g id="skyline" transform="translate(111.000000, 15.000000)">
					<g id="Group-3">
						<g id="Clip-2">
						</g>
						<defs>
							<filter id="Adobe_OpacityMaskFilter" filterUnits="userSpaceOnUse" x="0" y="0" width="40" height="44">
								<feColorMatrix  type="matrix" values="1 0 0 0 0  0 1 0 0 0  0 0 1 0 0  0 0 0 1 0"/>
							</filter>
						</defs>
						<mask maskUnits="userSpaceOnUse" x="0" y="0" width="40" height="44" id="mask-2">
							<g class="st0">
								<polygon id="path-1" class="st1" points="0,44 40,44 40,0 0,0 								"/>
							</g>
						</mask>
						
							<linearGradient id="Fill-1_1_" gradientUnits="userSpaceOnUse" x1="-277.383" y1="410.5227" x2="-277.383" y2="409.5227" gradientTransform="matrix(40.045 0 0 -44 11127.8203 18063)">
							<stop  offset="0" style="stop-color:#2767A7"/>
							<stop  offset="1" style="stop-color:#1D3768"/>
						</linearGradient>
						<path id="Fill-1" class="st2" d="M17.3,42.5h12.4V24.2H17.3V42.5z M10.4,42.5v-1.2c0-0.4-0.3-0.7-0.7-0.7
							c-0.4,0-0.7,0.3-0.7,0.7v1.2H8.4V40h2.5v2.5H10.4z M3.5,15.3h12.4v27.2h-3.5v-3.2c0-0.4-0.3-0.7-0.7-0.7h-4
							c-0.4,0-0.7,0.3-0.7,0.7v3.2H3.5V15.3z M10.4,8.4h12.4v14.3h-5.4v-2.5h2.2c0.4,0,0.7-0.3,0.7-0.7s-0.3-0.7-0.7-0.7h-2.2v-2.5
							h2.2c0.4,0,0.7-0.3,0.7-0.7c0-0.4-0.3-0.7-0.7-0.7h-2.2v-0.2c0-0.4-0.3-0.7-0.7-0.7h-6.2V8.4z M13.3,6.9h6.4V4.4h-6.4V6.9z
							 M24.2,4.4h12.4v38.1h-5.4v-20c0-0.4-0.3-0.7-0.7-0.7c-0.4,0-0.7,0.3-0.7,0.7v0.2h-1.5v-0.2c0-0.4-0.3-0.7-0.7-0.7
							s-0.7,0.3-0.7,0.7v0.2h-2.5V4.4z M39.3,42.5h-1.2V3.7c0-0.4-0.3-0.7-0.7-0.7H23.5c-0.4,0-0.7,0.3-0.7,0.7v3.2h-1.5V3.7
							c0-0.4-0.3-0.7-0.7-0.7h-3.2V0.7C17.3,0.3,17,0,16.6,0s-0.7,0.3-0.7,0.7V3h-3.2c-0.4,0-0.7,0.3-0.7,0.7v3.2H9.6
							c-0.4,0-0.7,0.3-0.7,0.7v6.2H2.7c-0.4,0-0.7,0.3-0.7,0.7v27.9H0.7c-0.4,0-0.7,0.3-0.7,0.7S0.3,44,0.7,44h38.6
							c0.4,0,0.7-0.3,0.7-0.7S39.7,42.5,39.3,42.5L39.3,42.5z"/>
					</g>
					
						<linearGradient id="Fill-4_1_" gradientUnits="userSpaceOnUse" x1="-92.3474" y1="394.662" x2="-92.3474" y2="393.662" gradientTransform="matrix(1.4832 0 0 -15.3258 157.4862 6074.2334)">
						<stop  offset="0" style="stop-color:#2767A7"/>
						<stop  offset="1" style="stop-color:#1D3768"/>
					</linearGradient>
					<path id="Fill-4" class="st3" d="M20.5,25.7c-0.4,0-0.7,0.3-0.7,0.7v13.8c0,0.4,0.3,0.7,0.7,0.7c0.4,0,0.7-0.3,0.7-0.7V26.4
						C21.3,26,20.9,25.7,20.5,25.7"/>
					
						<linearGradient id="Fill-5_1_" gradientUnits="userSpaceOnUse" x1="-92.3474" y1="394.662" x2="-92.3474" y2="393.662" gradientTransform="matrix(1.4832 0 0 -15.3258 160.4525 6074.2334)">
						<stop  offset="0" style="stop-color:#2767A7"/>
						<stop  offset="1" style="stop-color:#1D3768"/>
					</linearGradient>
					<path id="Fill-5" class="st4" d="M23.5,25.7c-0.4,0-0.7,0.3-0.7,0.7v13.8c0,0.4,0.3,0.7,0.7,0.7c0.4,0,0.7-0.3,0.7-0.7V26.4
						C24.2,26,23.9,25.7,23.5,25.7"/>
					
						<linearGradient id="Fill-6_1_" gradientUnits="userSpaceOnUse" x1="-92.3474" y1="394.662" x2="-92.3474" y2="393.662" gradientTransform="matrix(1.4832 0 0 -15.3258 163.4188 6074.2334)">
						<stop  offset="0" style="stop-color:#2767A7"/>
						<stop  offset="1" style="stop-color:#1D3768"/>
					</linearGradient>
					<path id="Fill-6" class="st5" d="M26.4,25.7c-0.4,0-0.7,0.3-0.7,0.7v13.8c0,0.4,0.3,0.7,0.7,0.7c0.4,0,0.7-0.3,0.7-0.7V26.4
						C27.2,26,26.9,25.7,26.4,25.7"/>
					
						<linearGradient id="Fill-7_1_" gradientUnits="userSpaceOnUse" x1="-92.336" y1="268.1043" x2="-92.336" y2="267.1043" gradientTransform="matrix(1.4831 0 0 -2.4719 164.3826 669.65)">
						<stop  offset="0" style="stop-color:#2767A7"/>
						<stop  offset="1" style="stop-color:#1D3768"/>
					</linearGradient>
					<path id="Fill-7" class="st6" d="M27.4,9.4c0.4,0,0.7-0.3,0.7-0.7v-1c0-0.4-0.3-0.7-0.7-0.7s-0.7,0.3-0.7,0.7v1
						C26.7,9.1,27,9.4,27.4,9.4"/>
					
						<linearGradient id="Fill-8_1_" gradientUnits="userSpaceOnUse" x1="-92.3363" y1="268.1043" x2="-92.3363" y2="267.1043" gradientTransform="matrix(1.4831 0 0 -2.4719 167.3494 669.65)">
						<stop  offset="0" style="stop-color:#2767A7"/>
						<stop  offset="1" style="stop-color:#1D3768"/>
					</linearGradient>
					<path id="Fill-8" class="st7" d="M30.4,9.4c0.4,0,0.7-0.3,0.7-0.7v-1c0-0.4-0.3-0.7-0.7-0.7c-0.4,0-0.7,0.3-0.7,0.7v1
						C29.7,9.1,30,9.4,30.4,9.4"/>
					
						<linearGradient id="Fill-9_1_" gradientUnits="userSpaceOnUse" x1="-92.3469" y1="268.1043" x2="-92.3469" y2="267.1043" gradientTransform="matrix(1.4832 0 0 -2.4719 170.339 669.65)">
						<stop  offset="0" style="stop-color:#2767A7"/>
						<stop  offset="1" style="stop-color:#1D3768"/>
					</linearGradient>
					<path id="Fill-9" class="st8" d="M33.4,9.4c0.4,0,0.7-0.3,0.7-0.7v-1c0-0.4-0.3-0.7-0.7-0.7c-0.4,0-0.7,0.3-0.7,0.7v1
						C32.6,9.1,33,9.4,33.4,9.4"/>
					
						<linearGradient id="Fill-10_1_" gradientUnits="userSpaceOnUse" x1="-92.336" y1="268.1043" x2="-92.336" y2="267.1043" gradientTransform="matrix(1.4831 0 0 -2.4719 164.3826 674.594)">
						<stop  offset="0" style="stop-color:#2767A7"/>
						<stop  offset="1" style="stop-color:#1D3768"/>
					</linearGradient>
					<path id="Fill-10" class="st9" d="M27.4,14.3c0.4,0,0.7-0.3,0.7-0.7v-1c0-0.4-0.3-0.7-0.7-0.7s-0.7,0.3-0.7,0.7v1
						C26.7,14,27,14.3,27.4,14.3"/>
					
						<linearGradient id="Fill-11_1_" gradientUnits="userSpaceOnUse" x1="-92.3363" y1="268.1043" x2="-92.3363" y2="267.1043" gradientTransform="matrix(1.4831 0 0 -2.4719 167.3494 674.594)">
						<stop  offset="0" style="stop-color:#2767A7"/>
						<stop  offset="1" style="stop-color:#1D3768"/>
					</linearGradient>
					<path id="Fill-11" class="st10" d="M30.4,14.3c0.4,0,0.7-0.3,0.7-0.7v-1c0-0.4-0.3-0.7-0.7-0.7c-0.4,0-0.7,0.3-0.7,0.7v1
						C29.7,14,30,14.3,30.4,14.3"/>
					
						<linearGradient id="Fill-12_1_" gradientUnits="userSpaceOnUse" x1="-92.3469" y1="268.1043" x2="-92.3469" y2="267.1043" gradientTransform="matrix(1.4832 0 0 -2.4719 170.339 674.594)">
						<stop  offset="0" style="stop-color:#2767A7"/>
						<stop  offset="1" style="stop-color:#1D3768"/>
					</linearGradient>
					<path id="Fill-12" class="st11" d="M33.4,14.3c0.4,0,0.7-0.3,0.7-0.7v-1c0-0.4-0.3-0.7-0.7-0.7c-0.4,0-0.7,0.3-0.7,0.7v1
						C32.6,14,33,14.3,33.4,14.3"/>
					
						<linearGradient id="Fill-13_1_" gradientUnits="userSpaceOnUse" x1="-92.336" y1="268.1043" x2="-92.336" y2="267.1043" gradientTransform="matrix(1.4831 0 0 -2.4719 164.3826 679.5379)">
						<stop  offset="0" style="stop-color:#2767A7"/>
						<stop  offset="1" style="stop-color:#1D3768"/>
					</linearGradient>
					<path id="Fill-13" class="st12" d="M27.4,19.3c0.4,0,0.7-0.3,0.7-0.7v-1c0-0.4-0.3-0.7-0.7-0.7s-0.7,0.3-0.7,0.7v1
						C26.7,18.9,27,19.3,27.4,19.3"/>
					
						<linearGradient id="Fill-14_1_" gradientUnits="userSpaceOnUse" x1="-92.3363" y1="268.1043" x2="-92.3363" y2="267.1043" gradientTransform="matrix(1.4831 0 0 -2.4719 167.3494 679.5379)">
						<stop  offset="0" style="stop-color:#2767A7"/>
						<stop  offset="1" style="stop-color:#1D3768"/>
					</linearGradient>
					<path id="Fill-14" class="st13" d="M30.4,19.3c0.4,0,0.7-0.3,0.7-0.7v-1c0-0.4-0.3-0.7-0.7-0.7c-0.4,0-0.7,0.3-0.7,0.7v1
						C29.7,18.9,30,19.3,30.4,19.3"/>
					
						<linearGradient id="Fill-15_1_" gradientUnits="userSpaceOnUse" x1="-92.3469" y1="268.1043" x2="-92.3469" y2="267.1043" gradientTransform="matrix(1.4832 0 0 -2.4719 170.339 679.5379)">
						<stop  offset="0" style="stop-color:#2767A7"/>
						<stop  offset="1" style="stop-color:#1D3768"/>
					</linearGradient>
					<path id="Fill-15" class="st14" d="M33.4,19.3c0.4,0,0.7-0.3,0.7-0.7v-1c0-0.4-0.3-0.7-0.7-0.7c-0.4,0-0.7,0.3-0.7,0.7v1
						C32.6,18.9,33,19.3,33.4,19.3"/>
					
						<linearGradient id="Fill-16_1_" gradientUnits="userSpaceOnUse" x1="-92.3361" y1="268.1043" x2="-92.3361" y2="267.1043" gradientTransform="matrix(1.4831 0 0 -2.4719 143.6187 681.5154)">
						<stop  offset="0" style="stop-color:#2767A7"/>
						<stop  offset="1" style="stop-color:#1D3768"/>
					</linearGradient>
					<path id="Fill-16" class="st15" d="M6.7,21.3c0.4,0,0.7-0.3,0.7-0.7v-1c0-0.4-0.3-0.7-0.7-0.7c-0.4,0-0.7,0.3-0.7,0.7v1
						C5.9,20.9,6.3,21.3,6.7,21.3"/>
					
						<linearGradient id="Fill-17_1_" gradientUnits="userSpaceOnUse" x1="-92.3362" y1="268.1043" x2="-92.3362" y2="267.1043" gradientTransform="matrix(1.4831 0 0 -2.4719 146.5851 681.5154)">
						<stop  offset="0" style="stop-color:#2767A7"/>
						<stop  offset="1" style="stop-color:#1D3768"/>
					</linearGradient>
					<path id="Fill-17" class="st16" d="M9.6,21.3c0.4,0,0.7-0.3,0.7-0.7v-1c0-0.4-0.3-0.7-0.7-0.7c-0.4,0-0.7,0.3-0.7,0.7v1
						C8.9,20.9,9.2,21.3,9.6,21.3"/>
					
						<linearGradient id="Fill-18_1_" gradientUnits="userSpaceOnUse" x1="-92.3473" y1="268.1043" x2="-92.3473" y2="267.1043" gradientTransform="matrix(1.4832 0 0 -2.4719 149.5758 681.5154)">
						<stop  offset="0" style="stop-color:#2767A7"/>
						<stop  offset="1" style="stop-color:#1D3768"/>
					</linearGradient>
					<path id="Fill-18" class="st17" d="M12.6,21.3c0.4,0,0.7-0.3,0.7-0.7v-1c0-0.4-0.3-0.7-0.7-0.7c-0.4,0-0.7,0.3-0.7,0.7v1
						C11.9,20.9,12.2,21.3,12.6,21.3"/>
					
						<linearGradient id="Fill-19_1_" gradientUnits="userSpaceOnUse" x1="-92.3361" y1="268.1042" x2="-92.3361" y2="267.1042" gradientTransform="matrix(1.4831 0 0 -2.4719 143.6187 686.4584)">
						<stop  offset="0" style="stop-color:#2767A7"/>
						<stop  offset="1" style="stop-color:#1D3768"/>
					</linearGradient>
					<path id="Fill-19" class="st18" d="M6.7,26.2c0.4,0,0.7-0.3,0.7-0.7v-1c0-0.4-0.3-0.7-0.7-0.7c-0.4,0-0.7,0.3-0.7,0.7v1
						C5.9,25.9,6.3,26.2,6.7,26.2"/>
					
						<linearGradient id="Fill-20_1_" gradientUnits="userSpaceOnUse" x1="-92.3362" y1="268.1042" x2="-92.3362" y2="267.1042" gradientTransform="matrix(1.4831 0 0 -2.4719 146.5851 686.4584)">
						<stop  offset="0" style="stop-color:#2767A7"/>
						<stop  offset="1" style="stop-color:#1D3768"/>
					</linearGradient>
					<path id="Fill-20" class="st19" d="M9.6,26.2c0.4,0,0.7-0.3,0.7-0.7v-1c0-0.4-0.3-0.7-0.7-0.7c-0.4,0-0.7,0.3-0.7,0.7v1
						C8.9,25.9,9.2,26.2,9.6,26.2"/>
					
						<linearGradient id="Fill-21_1_" gradientUnits="userSpaceOnUse" x1="-92.3473" y1="268.1042" x2="-92.3473" y2="267.1042" gradientTransform="matrix(1.4832 0 0 -2.4719 149.5758 686.4584)">
						<stop  offset="0" style="stop-color:#2767A7"/>
						<stop  offset="1" style="stop-color:#1D3768"/>
					</linearGradient>
					<path id="Fill-21" class="st20" d="M12.6,26.2c0.4,0,0.7-0.3,0.7-0.7v-1c0-0.4-0.3-0.7-0.7-0.7c-0.4,0-0.7,0.3-0.7,0.7v1
						C11.9,25.9,12.2,26.2,12.6,26.2"/>
					
						<linearGradient id="Fill-22_1_" gradientUnits="userSpaceOnUse" x1="-92.3361" y1="268.1043" x2="-92.3361" y2="267.1043" gradientTransform="matrix(1.4831 0 0 -2.4719 143.6187 691.4031)">
						<stop  offset="0" style="stop-color:#2767A7"/>
						<stop  offset="1" style="stop-color:#1D3768"/>
					</linearGradient>
					<path id="Fill-22" class="st21" d="M6.7,31.1c0.4,0,0.7-0.3,0.7-0.7v-1c0-0.4-0.3-0.7-0.7-0.7c-0.4,0-0.7,0.3-0.7,0.7v1
						C5.9,30.8,6.3,31.1,6.7,31.1"/>
					
						<linearGradient id="Fill-23_1_" gradientUnits="userSpaceOnUse" x1="-92.3362" y1="268.1043" x2="-92.3362" y2="267.1043" gradientTransform="matrix(1.4831 0 0 -2.4719 146.5851 691.4031)">
						<stop  offset="0" style="stop-color:#2767A7"/>
						<stop  offset="1" style="stop-color:#1D3768"/>
					</linearGradient>
					<path id="Fill-23" class="st22" d="M9.6,31.1c0.4,0,0.7-0.3,0.7-0.7v-1c0-0.4-0.3-0.7-0.7-0.7c-0.4,0-0.7,0.3-0.7,0.7v1
						C8.9,30.8,9.2,31.1,9.6,31.1"/>
					
						<linearGradient id="Fill-24_1_" gradientUnits="userSpaceOnUse" x1="-92.3473" y1="268.1043" x2="-92.3473" y2="267.1043" gradientTransform="matrix(1.4832 0 0 -2.4719 149.5758 691.4031)">
						<stop  offset="0" style="stop-color:#2767A7"/>
						<stop  offset="1" style="stop-color:#1D3768"/>
					</linearGradient>
					<path id="Fill-24" class="st23" d="M12.6,31.1c0.4,0,0.7-0.3,0.7-0.7v-1c0-0.4-0.3-0.7-0.7-0.7c-0.4,0-0.7,0.3-0.7,0.7v1
						C11.9,30.8,12.2,31.1,12.6,31.1"/>
					
						<linearGradient id="Fill-25_1_" gradientUnits="userSpaceOnUse" x1="-92.3361" y1="268.1042" x2="-92.3361" y2="267.1042" gradientTransform="matrix(1.4831 0 0 -2.4719 143.6187 696.3461)">
						<stop  offset="0" style="stop-color:#2767A7"/>
						<stop  offset="1" style="stop-color:#1D3768"/>
					</linearGradient>
					<path id="Fill-25" class="st24" d="M7.4,35.3v-1c0-0.4-0.3-0.7-0.7-0.7c-0.4,0-0.7,0.3-0.7,0.7v1c0,0.4,0.3,0.7,0.7,0.7
						C7.1,36.1,7.4,35.8,7.4,35.3"/>
					
						<linearGradient id="Fill-26_1_" gradientUnits="userSpaceOnUse" x1="-92.3362" y1="268.1042" x2="-92.3362" y2="267.1042" gradientTransform="matrix(1.4831 0 0 -2.4719 146.5851 696.3461)">
						<stop  offset="0" style="stop-color:#2767A7"/>
						<stop  offset="1" style="stop-color:#1D3768"/>
					</linearGradient>
					<path id="Fill-26" class="st25" d="M9.6,36.1c0.4,0,0.7-0.3,0.7-0.7v-1c0-0.4-0.3-0.7-0.7-0.7c-0.4,0-0.7,0.3-0.7,0.7v1
						C8.9,35.8,9.2,36.1,9.6,36.1"/>
					
						<linearGradient id="Fill-27_1_" gradientUnits="userSpaceOnUse" x1="-92.3473" y1="268.1042" x2="-92.3473" y2="267.1042" gradientTransform="matrix(1.4832 0 0 -2.4719 149.5758 696.3461)">
						<stop  offset="0" style="stop-color:#2767A7"/>
						<stop  offset="1" style="stop-color:#1D3768"/>
					</linearGradient>
					<path id="Fill-27" class="st26" d="M12.6,36.1c0.4,0,0.7-0.3,0.7-0.7v-1c0-0.4-0.3-0.7-0.7-0.7c-0.4,0-0.7,0.3-0.7,0.7v1
						C11.9,35.8,12.2,36.1,12.6,36.1"/>
					
						<linearGradient id="Fill-28_1_" gradientUnits="userSpaceOnUse" x1="-92.3469" y1="268.1043" x2="-92.3469" y2="267.1043" gradientTransform="matrix(1.4832 0 0 -2.4719 170.339 684.4818)">
						<stop  offset="0" style="stop-color:#2767A7"/>
						<stop  offset="1" style="stop-color:#1D3768"/>
					</linearGradient>
					<path id="Fill-28" class="st27" d="M33.4,24.2c0.4,0,0.7-0.3,0.7-0.7v-1c0-0.4-0.3-0.7-0.7-0.7c-0.4,0-0.7,0.3-0.7,0.7v1
						C32.6,23.9,33,24.2,33.4,24.2"/>
					
						<linearGradient id="Fill-29_1_" gradientUnits="userSpaceOnUse" x1="-92.3469" y1="268.1042" x2="-92.3469" y2="267.1042" gradientTransform="matrix(1.4832 0 0 -2.4719 170.339 689.4247)">
						<stop  offset="0" style="stop-color:#2767A7"/>
						<stop  offset="1" style="stop-color:#1D3768"/>
					</linearGradient>
					<path id="Fill-29" class="st28" d="M33.4,29.2c0.4,0,0.7-0.3,0.7-0.7v-1c0-0.4-0.3-0.7-0.7-0.7c-0.4,0-0.7,0.3-0.7,0.7v1
						C32.6,28.8,33,29.2,33.4,29.2"/>
					
						<linearGradient id="Fill-30_1_" gradientUnits="userSpaceOnUse" x1="-92.3469" y1="268.1042" x2="-92.3469" y2="267.1042" gradientTransform="matrix(1.4832 0 0 -2.4719 170.339 694.3685)">
						<stop  offset="0" style="stop-color:#2767A7"/>
						<stop  offset="1" style="stop-color:#1D3768"/>
					</linearGradient>
					<path id="Fill-30" class="st29" d="M33.4,34.1c0.4,0,0.7-0.3,0.7-0.7v-1c0-0.4-0.3-0.7-0.7-0.7c-0.4,0-0.7,0.3-0.7,0.7v1
						C32.6,33.8,33,34.1,33.4,34.1"/>
					
						<linearGradient id="Fill-31_1_" gradientUnits="userSpaceOnUse" x1="-92.3469" y1="268.1042" x2="-92.3469" y2="267.1042" gradientTransform="matrix(1.4832 0 0 -2.4719 170.339 699.3124)">
						<stop  offset="0" style="stop-color:#2767A7"/>
						<stop  offset="1" style="stop-color:#1D3768"/>
					</linearGradient>
					<path id="Fill-31" class="st30" d="M33.4,39.1c0.4,0,0.7-0.3,0.7-0.7v-1c0-0.4-0.3-0.7-0.7-0.7c-0.4,0-0.7,0.3-0.7,0.7v1
						C32.6,38.7,33,39.1,33.4,39.1"/>
					
						<linearGradient id="Fill-32_1_" gradientUnits="userSpaceOnUse" x1="-246.0681" y1="167.5014" x2="-246.0681" y2="166.5014" gradientTransform="matrix(7.4157 0 0 -1.4831 1841.3336 259.2993)">
						<stop  offset="0" style="stop-color:#2767A7"/>
						<stop  offset="1" style="stop-color:#1D3768"/>
					</linearGradient>
					<path id="Fill-32" class="st31" d="M20.3,11.6c0-0.4-0.3-0.7-0.7-0.7h-5.9c-0.4,0-0.7,0.3-0.7,0.7s0.3,0.7,0.7,0.7h5.9
						C19.9,12.4,20.3,12,20.3,11.6"/>
				</g>
			</g>
		</g>
	</g>
</g>
</svg>
