<?xml version="1.0" encoding="utf-8"?>
<!-- Generator: Adobe Illustrator 21.0.2, SVG Export Plug-In . SVG Version: 6.00 Build 0)  -->
<svg version="1.1" id="Layer_1" xmlns="http://www.w3.org/2000/svg" xmlns:xlink="http://www.w3.org/1999/xlink" x="0px" y="0px"
	 viewBox="0 0 56 23" style="enable-background:new 0 0 56 23;" xml:space="preserve">
<style type="text/css">
	.st0{fill:#BE092F;}
</style>
<title>Page 1</title>
<desc>Created with Sketch.</desc>
<g id="Page-1_1_">
	<g id="_x30_1-Homepage" transform="translate(-693.000000, -2649.000000)">
		<g id="su-kien-noi-bat" transform="translate(1.000000, 2526.000000)">
			<g id="Title" transform="translate(656.000000, 78.000000)">
				<path id="Page-1" class="st0" d="M64.1,45l-3.8,7.5l-8.4,1.2l6.1,5.9l-1.4,8.3l7.5-4l7.4,4L70,59.6l6.1-5.9l-8.4-1.2L64.1,45z
					 M83.3,59.2L78.7,60l3.4,3.2l-0.8,4.5l4.1-2.2l4,2.2l-0.8-4.5L92,60l-4.7-0.8l-1.9-4.1L83.3,59.2z M40.7,59.2L36,60l3.4,3.2
					l-0.8,4.5l4-2.2l4.1,2.2L46,63.2l3.4-3.2l-4.7-0.8l-2.1-4.1L40.7,59.2z"/>
			</g>
		</g>
	</g>
</g>
</svg>
