<?xml version="1.0" encoding="utf-8"?>
<!-- Generator: Adobe Illustrator 21.0.2, SVG Export Plug-In . SVG Version: 6.00 Build 0)  -->
<svg version="1.1" id="Layer_1" xmlns="http://www.w3.org/2000/svg" xmlns:xlink="http://www.w3.org/1999/xlink" x="0px" y="0px"
	 viewBox="0 0 66 66" style="enable-background:new 0 0 66 66;" xml:space="preserve">
<style type="text/css">
	.st0{fill:none;stroke:url(#Stroke-1_1_);}
	.st1{fill:none;stroke:url(#Stroke-3_1_);}
	.st2{fill:none;stroke:url(#Stroke-5_1_);}
	.st3{fill:none;stroke:url(#Stroke-7_1_);}
	.st4{fill:none;stroke:url(#Stroke-9_1_);}
	.st5{filter:url(#Adobe_OpacityMaskFilter);}
	.st6{fill:#FFFFFF;}
	.st7{mask:url(#mask-3);fill:none;stroke:url(#Stroke-11_1_);}
	.st8{fill:none;stroke:url(#Stroke-14_1_);}
	.st9{fill:none;stroke:url(#Stroke-16_1_);}
	.st10{fill:none;stroke:url(#Stroke-19_1_);}
	.st11{fill:none;stroke:url(#Stroke-21_1_);}
</style>
<title>Page 1</title>
<desc>Created with Sketch.</desc>
<g id="Page-1_1_">
	<g id="_x30_2-About-us" transform="translate(-880.000000, -1003.000000)">
		<g id="tam-nhin-va-su-menh" transform="translate(0.000000, 812.000000)">
			<g id="Page-1" transform="translate(881.000000, 192.000000)">
				<g id="Group-18" transform="translate(5.270588, 2.422212)">
					
						<linearGradient id="Stroke-1_1_" gradientUnits="userSpaceOnUse" x1="-266.8288" y1="419.0822" x2="-267.8288" y2="420.0822" gradientTransform="matrix(26.2699 0 0 -54.987 7038.4609 23099.1973)">
						<stop  offset="0" style="stop-color:#2767A7"/>
						<stop  offset="1" style="stop-color:#4EA2F6"/>
					</linearGradient>
					<path id="Stroke-1" class="st0" d="M1.1,13.7c-0.3,2.5,0.5,3.8,0,5C0.6,20,0,22.2,0.5,23.6c0.5,1.5,1.3,4.7,2,4.8
						c0.7,0.1-0.5-3.5,0.2-2.3c0.7,1.1,0.7,2.8,1.9,4c1.2,1.2,2.9,1,4.2,2.1c1.3,1.1,2.6,2.8,3.8,2.6c0,0-0.1,0.9-0.7,2.3
						c-0.6,1.5-0.7,3.2,0.1,4.3c0.8,1,1.6,2.6,2.3,3.4s1.2,5,1,7c-0.2,2.1,0.8,6.8,3,7.8c2.2,1,0-0.5-0.4-1.8
						c-0.4-1.3,0.3-4.3,1.4-4.8c1-0.4,2-2.2,2.8-3.4c0.8-1.2,2.8-1.7,3.4-3.2c0.6-1.5,0.3-3.2,0.7-4c0.3-0.8,1.3-2.5-0.8-3.6
						c-2.1-1-3-0.5-3-1.5c-0.1-1-0.6-2-2.1-2.4c-1.5-0.4-2.8-1.3-4.4-1.5c-1.7-0.2-2,1.1-2.9,0.4c-0.9-0.7-1.6-1.4-1.9-2.3
						c-0.3-0.9-1.4-0.3-1.3-0.9c0.1-0.5,1.5-2-0.1-1.5c-1.6,0.5-3,0.3-2.9-1c0.1-1.4,2-1.9,2.8-2.1c0.8-0.2,1.4,0.8,2.3,1.4
						c1,0.6,0.1-0.9,0.6-1.9c0.5-1,2.5-1,2.8-2.4c0.3-1.5-0.1-2.7,1.5-2.9c1.6-0.2,3.2,0.1,3.4-0.7c0.2-0.8-1.8,0.3-1.9-0.7
						c-0.1-1,1.7-2.3,2.3-1.3c0.5,1,1.8,1,2,0.7c0.2-0.3,0-1-0.6-2.4c-0.6-1.5-1.2-1-1.7-2.7c-0.5-1.7-1.4,0.1-2.3-0.8
						c-0.9-0.9-1.9-2.7-2.1-1.1c-0.2,1.6-0.2,2.4-1,3.6c-0.8,1.2-1.1,0.3-1.8-0.5c-0.7-0.8-2.3-1.6-1.7-2.3c0.5-0.7,1-2.5,1.8-2
						c0.8,0.5,2,0.5,1.8-0.3c-0.2-0.9,0-1.2,0.3-1.7c0.3-0.4,1.6-1.2,1.6,0.3s-0.2,2,1,2.2c1.2,0.2,2.6,0.3,2.5-0.5
						c-0.1-0.8,0.3-0.6,0-1.9c-0.3-1.3-1.4-1.4-2.5-2c-1.1-0.6-1.7-1.6-2.7-1.2s-1,0.7-1.1,1.7c-0.1,1-0.6,1.3-1,0.9
						c-0.3-0.4,0.1-1.8-1.2-1C10.5,7.5,10,8.9,9.3,7.9c-0.7-1,1-2.9-0.8-2.1c-1.8,0.8-3.1,1.7-2.2,2c1,0.3,1.9,1,1,1.3
						c-1,0.3-2.9-0.3-3.6,0.4C3,10.3,1.1,13.7,1.1,13.7z"/>
					
						<linearGradient id="Stroke-3_1_" gradientUnits="userSpaceOnUse" x1="-253.7175" y1="357.3694" x2="-254.7175" y2="358.3694" gradientTransform="matrix(11.5515 0 0 -5.3068 2953.7632 1902.0404)">
						<stop  offset="0" style="stop-color:#2767A7"/>
						<stop  offset="1" style="stop-color:#4EA2F6"/>
					</linearGradient>
					<path id="Stroke-3" class="st1" d="M11.4,4.3c0,1,0.3,1.7,1.1,0.9s1.4-1.9,2-1.5c0.6,0.4,1.7,0.3,2.1,0.3
						c0.4,0,0.5-1.3,1.7-1.2c1.2,0.2,0.8-0.3,2.1-1c1.3-0.7,4.1-1.9,1.2-1.6s-3-0.4-5,0.9c-2,1.3-2.4,1.3-3,1.7
						c-0.5,0.3-1.1-1-1.8,0C11.1,3.9,11.4,3.4,11.4,4.3z"/>
					
						<linearGradient id="Stroke-5_1_" gradientUnits="userSpaceOnUse" x1="-260.1176" y1="396.1446" x2="-261.1176" y2="397.1446" gradientTransform="matrix(15.9135 0 0 -12.2738 4176.229 4874.1465)">
						<stop  offset="0" style="stop-color:#2767A7"/>
						<stop  offset="1" style="stop-color:#4EA2F6"/>
					</linearGradient>
					<path id="Stroke-5" class="st2" d="M21.8,1.6c-1,0.9-2.6,2.2-1.4,2.2c1.2,0,1.8-0.6,2.5,0.2c0.7,0.8,0.4,2.1,0.4,2.8
						c0,0.6-0.3,2,0.5,3.7s1,2.9,1.8,1.7c0.9-1.1,3-3.3,4-3.5c1-0.2,2.1-0.6,2.6-1.5c0.5-0.9,0-1.7,0.9-2.3c0.9-0.6,0.7-1.4,1-2.4
						c0.3-1,2.6-1,1.6-1.5c-1-0.5-3-0.9-5.2-0.6C28.1,0.8,23.7,0,21.8,1.6z"/>
					
						<linearGradient id="Stroke-7_1_" gradientUnits="userSpaceOnUse" x1="-207.0228" y1="297.7493" x2="-208.0228" y2="298.7493" gradientTransform="matrix(3.8654 0 0 -2.8346 815.5922 875.5135)">
						<stop  offset="0" style="stop-color:#2767A7"/>
						<stop  offset="1" style="stop-color:#4EA2F6"/>
					</linearGradient>
					<path id="Stroke-7" class="st3" d="M12.2,28.5c-0.6,0.9-0.3,1,0.3,1.1c0.6,0.2-0.3,1.2,0.4,1.3c0.7,0.1,2.3,0.5,2.7,0
						c0.4-0.5-0.7-0.3-1.5-0.9C13.5,29.5,12.6,27.9,12.2,28.5z"/>
					
						<linearGradient id="Stroke-9_1_" gradientUnits="userSpaceOnUse" x1="-171.2482" y1="354.5778" x2="-172.2482" y2="355.5778" gradientTransform="matrix(2.5657 0 0 -5.0979 494.0071 1855.2882)">
						<stop  offset="0" style="stop-color:#2767A7"/>
						<stop  offset="1" style="stop-color:#4EA2F6"/>
					</linearGradient>
					<path id="Stroke-9" class="st4" d="M54.3,42.7c-0.9,0.5-0.5,1.2-1.4,1.7c-0.9,0.5-0.5,0.7-0.8,1.9c-0.3,1.2,0.1,1.9,0.7,1
						C53.4,46.3,55.3,42.1,54.3,42.7z"/>
					<g id="Group-13" transform="translate(33.498911, 6.843863)">
						<g id="Clip-12">
						</g>
						<defs>
							<filter id="Adobe_OpacityMaskFilter" filterUnits="userSpaceOnUse" x="-0.5" y="-0.3" width="26.8" height="45.4">
								<feColorMatrix  type="matrix" values="1 0 0 0 0  0 1 0 0 0  0 0 1 0 0  0 0 0 1 0"/>
							</filter>
						</defs>
						<mask maskUnits="userSpaceOnUse" x="-0.5" y="-0.3" width="26.8" height="45.4" id="mask-3">
							<g class="st5">
								<path id="path-2" class="st6" d="M15.6,44.7c5.6-5.5,9.1-13.2,9.1-21.7c0-9-3.9-17.1-10.1-22.7H0v44.4H15.6L15.6,44.7z"/>
							</g>
						</mask>
						
							<linearGradient id="Stroke-11_1_" gradientUnits="userSpaceOnUse" x1="-300.1462" y1="410.6558" x2="-301.1462" y2="411.6558" gradientTransform="matrix(25.7748 0 0 -44.4257 7763.8105 18285.2031)">
							<stop  offset="0" style="stop-color:#2767A7"/>
							<stop  offset="1" style="stop-color:#4EA2F6"/>
						</linearGradient>
						<path id="Stroke-11" class="st7" d="M21.6,17.2c-0.3,0.3-0.7-1.2-1-1.9c-0.3-0.7-0.3-1.9,0.5-2.6c0.9-0.8,0.5,1.1,0.5,2.1
							S21.8,17,21.6,17.2z M18.5,14.5c-0.6-0.3-1.7,0-3.1,0.4c-1.4,0.4-0.3-1,0.3-1.9c0.6-0.8,0.3,0.3,1.5,0.3
							C18.5,13.5,19.2,14.9,18.5,14.5z M16.5,17.5c-0.1,0.7,0.3,1.8-1.7,1.4c-1.9-0.4-1.9-1.5-2.7-0.7s-1.7,1.5-2.9,0.3
							c-1.1-1.2-1-1.6-1.6-1.7c-0.4-0.1-1.9-0.4-3.1,0c0.1-0.1,0.2-0.1,0.3-0.2c0.9-0.8,0.7-1,1.7-1.9c1-0.9,1.7-1.7,2.3-0.9
							c0.7,0.8,2.2,1,1.7,1.8c-0.5,0.9-0.2,1.4,0.4,0.9c0.6-0.5,1.5-0.9,0.9-1.6c-0.6-0.7-1.2-2.5-0.3-1.3c0.9,1.2,1.1,1.8,1.7,2.5
							c0.5,0.7,1,1.1,1.2,0.7c0.2-0.4-0.1-1.4,0.2-1.6c0.3-0.2,0,1.5,0.8,1.6C16.2,16.9,16.6,16.8,16.5,17.5z M25.8,21.2
							c-0.3-1.5-2.2-14.9-2.2-14.9s-5.1-3.3-6-2.6c-0.9,0.7-2.3,0.6-2.2-0.1c0.2-0.7,1.3-0.5-0.6-1.8c-1.9-1.3-2.3-2.4-3.7-0.8
							c-1.5,1.7-1.8,3-2.7,3.5C7.5,5,6.8,6.4,7.8,6.7c1,0.3,1,0,1.8,0.7c0.8,0.7,1.8,0.5,2,0.1c0.2-0.4,0.3-1.8,0.4-2.3
							c0.1-0.5,1-2.3,0.9-0.9c-0.1,1.4,1.2,1.4,0.3,2.3c-0.9,1-0.3,1.7-2.1,1.9C9.4,8.7,9.3,7.7,8.4,8.2c-1,0.5-0.9,0.9-1.2,1.4
							C6.8,10.1,5,11.1,5,11.1s-1.5-0.5-0.8,0.4c0.7,1,1.3,2.1,0.7,2.2c-0.6,0.1-2.3-0.9-2.3,0.2s-0.3,2.2,0.4,2.4
							c0.5,0.2,0.8,0.6,1.3,0.5C4,17,3.7,17.3,3.4,17.6c-0.7,0.9-0.3,2.4-1.7,3c-1.4,0.5-1.4,1.1-1.7,2.3c-0.3,1.1,0,4,0.3,4.3
							c0.3,0.3,1,2.4,2.4,2.3c1.5-0.2,3-0.2,3.6,0c0.5,0.3,1.4-0.5,1.7,1.5c0.3,2,0.9,2.3,1.2,3.3c0.3,1-0.2,3.2,0,4.5
							c0.2,1.3,1.4,3.6,1.4,4.7c0,1.1,1.3,1.7,2,1.2s2.2-1.3,2.8-2.7c0.6-1.4,0.6-2.1,1.6-3.9c1-1.8,0.7-3.1,1.1-4.5
							c0.4-1.4,1.5-2.3,2.9-3.9c1.4-1.6,1.2-2.4,0-2.3c-1.2,0.1-2-1-2.6-2.4c-0.6-1.4-1.3-4.9-0.8-3.7c0.5,1.1,1.6,4.3,2.6,4.8
							c1,0.5,3-0.9,3.4-1.4c0.4-0.5,0.3-2-0.9-2.6c-1.1-0.6-0.4-1.1,0.7-0.4C24.7,22,26,22.7,25.8,21.2z"/>
					</g>
					
						<linearGradient id="Stroke-14_1_" gradientUnits="userSpaceOnUse" x1="-206.7448" y1="327.1425" x2="-207.7448" y2="328.1425" gradientTransform="matrix(3.8549 0 0 -3.6788 836.2059 1220.7424)">
						<stop  offset="0" style="stop-color:#2767A7"/>
						<stop  offset="1" style="stop-color:#4EA2F6"/>
					</linearGradient>
					<path id="Stroke-14" class="st8" d="M38.3,13.5c-0.5,0.2-1,1.2-0.7,1.7c0.3,0.5-0.3-0.3-1,0.2c-0.7,0.4-1.7,1.7-0.8,1.7
						c1,0.1,0.8-0.7,1.6-0.3c0.9,0.3,1.8,0.3,1.8-0.6C39.4,15.3,39.2,13.2,38.3,13.5z"/>
					
						<linearGradient id="Stroke-16_1_" gradientUnits="userSpaceOnUse" x1="-197.4519" y1="210.0064" x2="-198.4519" y2="211.0064" gradientTransform="matrix(3.4061 0 0 -1.6796 708.0761 363.8542)">
						<stop  offset="0" style="stop-color:#2767A7"/>
						<stop  offset="1" style="stop-color:#4EA2F6"/>
					</linearGradient>
					<path id="Stroke-16" class="st9" d="M32.7,9.5c-0.5,0.1-0.7,1.4,0.4,1.6c1.1,0.2,3.2-0.3,2.4-1C34.8,9.4,33.9,9.3,32.7,9.5z"/>
				</g>
				<g id="Group-23" transform="translate(0.000000, 0.163388)">
					
						<linearGradient id="Stroke-19_1_" gradientUnits="userSpaceOnUse" x1="-267.7278" y1="422.1508" x2="-268.7278" y2="423.1508" gradientTransform="matrix(63.6668 0 0 -63.6672 17109.2305 26940.8496)">
						<stop  offset="0" style="stop-color:#2767A7"/>
						<stop  offset="1" style="stop-color:#4EA2F6"/>
					</linearGradient>
					<path id="Stroke-19" class="st10" d="M63.9,31.9c0,17.6-14.3,31.8-31.8,31.8c-17.6,0-31.8-14.3-31.8-31.8C0.2,14.3,14.4,0,32,0
						C49.6,0,63.9,14.3,63.9,31.9z"/>
					
						<linearGradient id="Stroke-21_1_" gradientUnits="userSpaceOnUse" x1="-267.6886" y1="422.0986" x2="-268.6886" y2="423.0986" gradientTransform="matrix(63.0882 0 0 -63.0882 16951.6992 26693.248)">
						<stop  offset="0" style="stop-color:#2767A7"/>
						<stop  offset="1" style="stop-color:#4EA2F6"/>
					</linearGradient>
					<path id="Stroke-21" class="st11" d="M63.7,32.3c0,17.4-14.1,31.5-31.5,31.5S0.6,49.7,0.6,32.3c0-17.4,14.1-31.5,31.5-31.5
						S63.7,14.8,63.7,32.3z"/>
				</g>
			</g>
		</g>
	</g>
</g>
</svg>
